<svg version="1.1" viewBox="0.0 0.0 153.0 153.0" fill="none" stroke="none" stroke-linecap="square" stroke-miterlimit="10" xmlns:xlink="http://www.w3.org/1999/xlink" xmlns="http://www.w3.org/2000/svg"><clipPath id="p.0"><path d="m0 0l153.0 0l0 153.0l-153.0 0l0 -153.0z" clip-rule="nonzero"/></clipPath><g clip-path="url(#p.0)"><path fill="#ffffff" d="m0 0l153.0 0l0 153.0l-153.0 0z" fill-rule="evenodd"/><path fill="#000000" fill-opacity="0.0" d="m806.7125 393.23392l16.031494 0" fill-rule="evenodd"/><path stroke="#4a86e8" stroke-width="1.0" stroke-linejoin="round" stroke-linecap="butt" d="m806.7125 393.23392l16.031494 0" fill-rule="evenodd"/><path fill="#000000" fill-opacity="0.0" d="m824.2088 355.50714l21.259827 38.614166" fill-rule="evenodd"/><path stroke="#4a86e8" stroke-width="1.0" stroke-linejoin="round" stroke-linecap="butt" d="m824.2088 355.50714l21.259827 38.614166" fill-rule="evenodd"/><path fill="#000000" fill-opacity="0.0" d="m805.23615 355.50714l-21.259888 38.614166" fill-rule="evenodd"/><path stroke="#4a86e8" stroke-width="1.0" stroke-linejoin="round" stroke-linecap="butt" d="m805.23615 355.50714l-21.259888 38.614166" fill-rule="evenodd"/><path fill="#ffffff" d="m814.7241 372.08875l0 0c1.5655518 0 2.8346558 1.2197571 2.8346558 2.7243958l0 0c0 0.7225647 -0.29864502 1.4155273 -0.83026123 1.9264526c-0.5315552 0.5109253 -1.2525635 0.79797363 -2.0043945 0.79797363l0 0c-1.5654907 0 -2.8345947 -1.2197571 -2.8345947 -2.7244263l0 0c0 -1.5046387 1.269104 -2.7243958 2.8345947 -2.7243958z" fill-rule="evenodd"/><path stroke="#4a86e8" stroke-width="1.0" stroke-linejoin="round" stroke-linecap="butt" d="m814.7241 372.08875l0 0c1.5655518 0 2.8346558 1.2197571 2.8346558 2.7243958l0 0c0 0.7225647 -0.29864502 1.4155273 -0.83026123 1.9264526c-0.5315552 0.5109253 -1.2525635 0.79797363 -2.0043945 0.79797363l0 0c-1.5654907 0 -2.8345947 -1.2197571 -2.8345947 -2.7244263l0 0c0 -1.5046387 1.269104 -2.7243958 2.8345947 -2.7243958z" fill-rule="evenodd"/><path fill="#000000" fill-opacity="0.0" d="m796.33466 136.17981l69.19684 0l0 48.220474l-69.19684 0z" fill-rule="evenodd"/><path fill="#4a86e8" d="m815.7253 165.40044q-1.0625 0 -1.875 -0.4375q-0.796875 -0.4375 -1.25 -1.328125q-0.453125 -0.890625 -0.453125 -2.25q0 -1.421875 0.46875 -2.328125q0.484375 -0.90625 1.3125 -1.34375q0.84375 -0.4375 1.921875 -0.4375q0.578125 0 1.125 0.125q0.546875 0.109375 0.90625 0.28125l-0.359375 1.0q-0.359375 -0.140625 -0.828125 -0.25q-0.46875 -0.125 -0.875 -0.125q-0.8125 0 -1.359375 0.359375q-0.546875 0.34375 -0.8125 1.03125q-0.265625 0.671875 -0.265625 1.671875q0 0.953125 0.25 1.625q0.265625 0.671875 0.78125 1.03125q0.53125 0.34375 1.3125 0.34375q0.625 0 1.125 -0.125q0.5 -0.140625 0.90625 -0.3125l0 1.0625q-0.390625 0.1875 -0.875 0.296875q-0.484375 0.109375 -1.15625 0.109375zm6.0672607 3.375q-1.546875 0 -2.390625 -0.578125q-0.828125 -0.5625 -0.828125 -1.609375q0 -0.734375 0.46875 -1.265625q0.46875 -0.515625 1.296875 -0.6875q-0.296875 -0.140625 -0.515625 -0.421875q-0.21875 -0.296875 -0.21875 -0.65625q0 -0.4375 0.234375 -0.765625q0.234375 -0.328125 0.734375 -0.625q-0.609375 -0.25 -1.0 -0.84375q-0.375 -0.59375 -0.375 -1.390625q0 -0.84375 0.34375 -1.4375q0.34375 -0.609375 1.015625 -0.921875q0.671875 -0.3125 1.609375 -0.3125q0.203125 0 0.40625 0.015625q0.21875 0.015625 0.40625 0.046875q0.203125 0.03125 0.34375 0.078125l2.703125 0l0 0.765625l-1.453125 0.1875q0.21875 0.265625 0.359375 0.671875q0.140625 0.390625 0.140625 0.859375q0 1.1875 -0.796875 1.875q-0.796875 0.6875 -2.171875 0.6875q-0.34375 0 -0.6875 -0.0625q-0.34375 0.203125 -0.53125 0.4375q-0.171875 0.234375 -0.171875 0.546875q0 0.21875 0.140625 0.359375q0.140625 0.140625 0.390625 0.203125q0.265625 0.046875 0.640625 0.046875l1.390625 0q1.28125 0 1.953125 0.546875q0.6875 0.53125 0.6875 1.5625q0 1.296875 -1.0625 1.984375q-1.046875 0.703125 -3.0625 0.703125zm0.046875 -0.921875q0.96875 0 1.609375 -0.203125q0.640625 -0.1875 0.953125 -0.5625q0.328125 -0.375 0.328125 -0.875q0 -0.46875 -0.21875 -0.71875q-0.21875 -0.234375 -0.640625 -0.3125q-0.40625 -0.09375 -1.0 -0.09375l-1.359375 0q-0.53125 0 -0.9375 0.171875q-0.390625 0.171875 -0.609375 0.484375q-0.203125 0.328125 -0.203125 0.796875q0 0.640625 0.53125 0.96875q0.546875 0.34375 1.546875 0.34375zm0.296875 -6.265625q0.859375 0 1.28125 -0.421875q0.4375 -0.4375 0.4375 -1.265625q0 -0.875 -0.4375 -1.3125q-0.4375 -0.453125 -1.296875 -0.453125q-0.8125 0 -1.25 0.453125q-0.4375 0.453125 -0.4375 1.328125q0 0.8125 0.4375 1.25q0.453125 0.421875 1.265625 0.421875zm9.145386 -4.3125q1.390625 0 2.109375 0.6875q0.71875 0.671875 0.71875 2.1875l0 5.109375l-1.171875 0l0 -5.03125q0 -0.984375 -0.453125 -1.46875q-0.453125 -0.484375 -1.375 -0.484375q-1.296875 0 -1.828125 0.734375q-0.53125 0.734375 -0.53125 2.140625l0 4.109375l-1.1875 0l0 -7.84375l0.96875 0l0.171875 1.125l0.0625 0q0.25 -0.40625 0.640625 -0.6875q0.390625 -0.28125 0.859375 -0.421875q0.484375 -0.15625 1.015625 -0.15625z" fill-rule="nonzero"/><path fill="#4a86e8" d="m843.0201 165.25981l-0.75 -2.484375l-3.8125 0l-0.765625 2.484375l-2.390625 0l3.6875 -10.5l2.71875 0l3.703125 10.5l-2.390625 0zm-1.28125 -4.34375l-0.765625 -2.4375q-0.0625 -0.25 -0.1875 -0.625q-0.109375 -0.390625 -0.234375 -0.78125q-0.125 -0.40625 -0.1875 -0.6875q-0.078125 0.28125 -0.203125 0.71875q-0.125 0.4375 -0.234375 0.828125q-0.109375 0.375 -0.171875 0.546875l-0.75 2.4375l2.734375 0zm4.9869385 4.34375l0 -10.46875l2.21875 0l0 10.46875l-2.21875 0z" fill-rule="nonzero"/><path fill="#000000" fill-opacity="0.0" d="m779.8618 122.084694l17.826721 35.55906" fill-rule="evenodd"/><path stroke="#4a86e8" stroke-width="1.0" stroke-linejoin="round" stroke-linecap="butt" d="m779.8618 122.084694l17.826721 35.55906" fill-rule="evenodd"/><path fill="#000000" fill-opacity="0.0" d="m779.8618 122.084694l-17.826782 35.55906" fill-rule="evenodd"/><path stroke="#4a86e8" stroke-width="1.0" stroke-linejoin="round" stroke-linecap="butt" d="m779.8618 122.084694l-17.826782 35.55906" fill-rule="evenodd"/><path fill="#000000" fill-opacity="0.0" d="m737.524 161.60495l13.417297 0" fill-rule="evenodd"/><path stroke="#4a86e8" stroke-width="1.0" stroke-linejoin="round" stroke-linecap="butt" d="m737.524 161.60495l13.417297 0" fill-rule="evenodd"/><path fill="#000000" fill-opacity="0.0" d="m744.23914 122.084694l17.826782 35.55906" fill-rule="evenodd"/><path stroke="#4a86e8" stroke-width="1.0" stroke-linejoin="round" stroke-linecap="butt" d="m744.23914 122.084694l17.826782 35.55906" fill-rule="evenodd"/><path fill="#000000" fill-opacity="0.0" d="m744.23914 122.084694l-17.826721 35.55906" fill-rule="evenodd"/><path stroke="#4a86e8" stroke-width="1.0" stroke-linejoin="round" stroke-linecap="butt" d="m744.23914 122.084694l-17.826721 35.55906" fill-rule="evenodd"/><g filter="url(#shadowFilter-p.1)"><use xlink:href="#p.1" transform="matrix(1.0 0.0 0.0 1.0 0.0 2.0)"/></g><defs><filter id="shadowFilter-p.1" filterUnits="userSpaceOnUse"><feGaussianBlur in="SourceAlpha" stdDeviation="2.0" result="blur"/><feComponentTransfer in="blur" color-interpolation-filters="sRGB"><feFuncR type="linear" slope="0" intercept="0.0"/><feFuncG type="linear" slope="0" intercept="0.0"/><feFuncB type="linear" slope="0" intercept="0.0"/><feFuncA type="linear" slope="0.13" intercept="0"/></feComponentTransfer></filter></defs><g id="p.1"><path fill="#ffffff" d="m744.23914 114.14769l0 0c2.2613525 0 4.0944824 1.7767563 4.0944824 3.9684982l0 0c0 1.0525131 -0.43133545 2.0619202 -1.1992188 2.80616c-0.7678833 0.7442398 -1.8093262 1.1623459 -2.8952637 1.1623459l0 0c-2.2612915 0 -4.0944824 -1.7767563 -4.0944824 -3.9685059l0 0c0 -2.191742 1.8331909 -3.9684982 4.0944824 -3.9684982z" fill-rule="evenodd"/><path stroke="#4a86e8" stroke-width="1.0" stroke-linejoin="round" stroke-linecap="butt" d="m744.23914 114.14769l0 0c2.2613525 0 4.0944824 1.7767563 4.0944824 3.9684982l0 0c0 1.0525131 -0.43133545 2.0619202 -1.1992188 2.80616c-0.7678833 0.7442398 -1.8093262 1.1623459 -2.8952637 1.1623459l0 0c-2.2612915 0 -4.0944824 -1.7767563 -4.0944824 -3.9685059l0 0c0 -2.191742 1.8331909 -3.9684982 4.0944824 -3.9684982z" fill-rule="evenodd"/></g><g filter="url(#shadowFilter-p.2)"><use xlink:href="#p.2" transform="matrix(1.0 0.0 0.0 1.0 0.0 2.0)"/></g><defs><filter id="shadowFilter-p.2" filterUnits="userSpaceOnUse"><feGaussianBlur in="SourceAlpha" stdDeviation="2.0" result="blur"/><feComponentTransfer in="blur" color-interpolation-filters="sRGB"><feFuncR type="linear" slope="0" intercept="0.0"/><feFuncG type="linear" slope="0" intercept="0.0"/><feFuncB type="linear" slope="0" intercept="0.0"/><feFuncA type="linear" slope="0.13" intercept="0"/></feComponentTransfer></filter></defs><g id="p.2"><path fill="#ffffff" d="m726.42786 157.63437l0 0c2.2612915 0 4.0944824 1.7767639 4.0944824 3.9685059l0 0c0 1.0525055 -0.43139648 2.0619202 -1.1992798 2.8061523c-0.76782227 0.7442322 -1.8092651 1.1623535 -2.8952026 1.1623535l0 0c-2.2613525 0 -4.0944824 -1.7767639 -4.0944824 -3.9685059l0 0c0 -2.191742 1.8331299 -3.9685059 4.0944824 -3.9685059z" fill-rule="evenodd"/><path stroke="#4a86e8" stroke-width="1.0" stroke-linejoin="round" stroke-linecap="butt" d="m726.42786 157.63437l0 0c2.2612915 0 4.0944824 1.7767639 4.0944824 3.9685059l0 0c0 1.0525055 -0.43139648 2.0619202 -1.1992798 2.8061523c-0.76782227 0.7442322 -1.8092651 1.1623535 -2.8952026 1.1623535l0 0c-2.2613525 0 -4.0944824 -1.7767639 -4.0944824 -3.9685059l0 0c0 -2.191742 1.8331299 -3.9685059 4.0944824 -3.9685059z" fill-rule="evenodd"/></g><g filter="url(#shadowFilter-p.3)"><use xlink:href="#p.3" transform="matrix(1.0 0.0 0.0 1.0 0.0 2.0)"/></g><defs><filter id="shadowFilter-p.3" filterUnits="userSpaceOnUse"><feGaussianBlur in="SourceAlpha" stdDeviation="2.0" result="blur"/><feComponentTransfer in="blur" color-interpolation-filters="sRGB"><feFuncR type="linear" slope="0" intercept="0.0"/><feFuncG type="linear" slope="0" intercept="0.0"/><feFuncB type="linear" slope="0" intercept="0.0"/><feFuncA type="linear" slope="0.13" intercept="0"/></feComponentTransfer></filter></defs><g id="p.3"><path fill="#ffffff" d="m762.0505 157.63437l0 0c2.2612915 0 4.0944824 1.7767639 4.0944824 3.9685059l0 0c0 1.0525055 -0.43139648 2.0619202 -1.1992188 2.8061523c-0.7678833 0.7442322 -1.8093262 1.1623535 -2.8952637 1.1623535l0 0c-2.2613525 0 -4.0944824 -1.7767639 -4.0944824 -3.9685059l0 0c0 -2.191742 1.8331299 -3.9685059 4.0944824 -3.9685059z" fill-rule="evenodd"/><path stroke="#4a86e8" stroke-width="1.0" stroke-linejoin="round" stroke-linecap="butt" d="m762.0505 157.63437l0 0c2.2612915 0 4.0944824 1.7767639 4.0944824 3.9685059l0 0c0 1.0525055 -0.43139648 2.0619202 -1.1992188 2.8061523c-0.7678833 0.7442322 -1.8093262 1.1623535 -2.8952637 1.1623535l0 0c-2.2613525 0 -4.0944824 -1.7767639 -4.0944824 -3.9685059l0 0c0 -2.191742 1.8331299 -3.9685059 4.0944824 -3.9685059z" fill-rule="evenodd"/></g><g filter="url(#shadowFilter-p.4)"><use xlink:href="#p.4" transform="matrix(1.0 0.0 0.0 1.0 0.0 2.0)"/></g><defs><filter id="shadowFilter-p.4" filterUnits="userSpaceOnUse"><feGaussianBlur in="SourceAlpha" stdDeviation="2.0" result="blur"/><feComponentTransfer in="blur" color-interpolation-filters="sRGB"><feFuncR type="linear" slope="0" intercept="0.0"/><feFuncG type="linear" slope="0" intercept="0.0"/><feFuncB type="linear" slope="0" intercept="0.0"/><feFuncA type="linear" slope="0.13" intercept="0"/></feComponentTransfer></filter></defs><g id="p.4"><path fill="#ffffff" d="m779.8618 114.14769l0 0c2.2612915 0 4.0944824 1.7767563 4.0944824 3.9684982l0 0c0 1.0525131 -0.43139648 2.0619202 -1.1992798 2.80616c-0.7678833 0.7442398 -1.8093262 1.1623459 -2.8952026 1.1623459l0 0c-2.2613525 0 -4.0945435 -1.7767563 -4.0945435 -3.9685059l0 0c0 -2.191742 1.8331909 -3.9684982 4.0945435 -3.9684982z" fill-rule="evenodd"/><path stroke="#4a86e8" stroke-width="1.0" stroke-linejoin="round" stroke-linecap="butt" d="m779.8618 114.14769l0 0c2.2612915 0 4.0944824 1.7767563 4.0944824 3.9684982l0 0c0 1.0525131 -0.43139648 2.0619202 -1.1992798 2.80616c-0.7678833 0.7442398 -1.8093262 1.1623459 -2.8952026 1.1623459l0 0c-2.2613525 0 -4.0945435 -1.7767563 -4.0945435 -3.9685059l0 0c0 -2.191742 1.8331909 -3.9684982 4.0945435 -3.9684982z" fill-rule="evenodd"/></g><g filter="url(#shadowFilter-p.5)"><use xlink:href="#p.5" transform="matrix(1.0 0.0 0.0 1.0 0.0 2.0)"/></g><defs><filter id="shadowFilter-p.5" filterUnits="userSpaceOnUse"><feGaussianBlur in="SourceAlpha" stdDeviation="2.0" result="blur"/><feComponentTransfer in="blur" color-interpolation-filters="sRGB"><feFuncR type="linear" slope="0" intercept="0.0"/><feFuncG type="linear" slope="0" intercept="0.0"/><feFuncB type="linear" slope="0" intercept="0.0"/><feFuncA type="linear" slope="0.13" intercept="0"/></feComponentTransfer></filter></defs><g id="p.5"><path fill="#ffffff" d="m797.6731 157.63437l0 0c2.2613525 0 4.0944824 1.7767639 4.0944824 3.9685059l0 0c0 1.0525055 -0.43139648 2.0619202 -1.1992188 2.8061523c-0.7678833 0.7442322 -1.8093262 1.1623535 -2.8952637 1.1623535l0 0c-2.2612915 0 -4.0944824 -1.7767639 -4.0944824 -3.9685059l0 0c0 -2.191742 1.8331909 -3.9685059 4.0944824 -3.9685059z" fill-rule="evenodd"/><path stroke="#4a86e8" stroke-width="1.0" stroke-linejoin="round" stroke-linecap="butt" d="m797.6731 157.63437l0 0c2.2613525 0 4.0944824 1.7767639 4.0944824 3.9685059l0 0c0 1.0525055 -0.43139648 2.0619202 -1.1992188 2.8061523c-0.7678833 0.7442322 -1.8093262 1.1623535 -2.8952637 1.1623535l0 0c-2.2612915 0 -4.0944824 -1.7767639 -4.0944824 -3.9685059l0 0c0 -2.191742 1.8331909 -3.9685059 4.0944824 -3.9685059z" fill-rule="evenodd"/></g><path fill="#000000" fill-opacity="0.0" d="m51.903854 30.465378l14.771652 39.37008" fill-rule="evenodd"/><path stroke="#4a86e8" stroke-width="1.0" stroke-linejoin="round" stroke-linecap="butt" d="m51.903854 30.465378l14.771652 39.37008" fill-rule="evenodd"/><path fill="#000000" fill-opacity="0.0" d="m51.903854 30.465378l-16.031494 39.37008" fill-rule="evenodd"/><path stroke="#4a86e8" stroke-width="1.0" stroke-linejoin="round" stroke-linecap="butt" d="m51.903854 30.465378l-16.031494 39.37008" fill-rule="evenodd"/><path fill="#000000" fill-opacity="0.0" d="m66.67635 79.10789l0 39.37008" fill-rule="evenodd"/><path stroke="#4a86e8" stroke-width="1.0" stroke-linejoin="round" stroke-linecap="butt" d="m66.67635 79.10789l0 39.37008" fill-rule="evenodd"/><path fill="#000000" fill-opacity="0.0" d="m35.87658 79.10789l15.401573 39.37008" fill-rule="evenodd"/><path stroke="#4a86e8" stroke-width="1.0" stroke-linejoin="round" stroke-linecap="butt" d="m35.87658 79.10789l15.401573 39.37008" fill-rule="evenodd"/><path fill="#000000" fill-opacity="0.0" d="m66.67635 79.10789l-15.401577 39.37008" fill-rule="evenodd"/><path stroke="#4a86e8" stroke-width="1.0" stroke-linejoin="round" stroke-linecap="butt" d="m66.67635 79.10789l-15.401577 39.37008" fill-rule="evenodd"/><path fill="#000000" fill-opacity="0.0" d="m66.67635 79.10789l15.401573 39.37008" fill-rule="evenodd"/><path stroke="#4a86e8" stroke-width="1.0" stroke-linejoin="round" stroke-linecap="butt" d="m66.67635 79.10789l15.401573 39.37008" fill-rule="evenodd"/><path fill="#000000" fill-opacity="0.0" d="m82.22997 30.465378l15.244095 39.37008" fill-rule="evenodd"/><path stroke="#4a86e8" stroke-width="1.0" stroke-linejoin="round" stroke-linecap="butt" d="m82.22997 30.465378l15.244095 39.37008" fill-rule="evenodd"/><path fill="#000000" fill-opacity="0.0" d="m82.22997 30.465378l-15.5590515 39.37008" fill-rule="evenodd"/><path stroke="#4a86e8" stroke-width="1.0" stroke-linejoin="round" stroke-linecap="butt" d="m82.22997 30.465378l-15.5590515 39.37008" fill-rule="evenodd"/><path fill="#000000" fill-opacity="0.0" d="m51.903854 21.182522l0 0c2.6576195 0 4.812046 2.0780373 4.812046 4.641428l0 0c0 1.2309837 -0.5069809 2.4115486 -1.4094124 3.2819843c-0.9024353 0.8704376 -2.1264 1.3594437 -3.4026337 1.3594437l0 0c-2.6576195 0 -4.812046 -2.0780392 -4.812046 -4.641428l0 0c0 -2.5633907 2.1544266 -4.641428 4.812046 -4.641428z" fill-rule="evenodd"/><path stroke="#4a86e8" stroke-width="1.0" stroke-linejoin="round" stroke-linecap="butt" d="m51.903854 21.182522l0 0c2.6576195 0 4.812046 2.0780373 4.812046 4.641428l0 0c0 1.2309837 -0.5069809 2.4115486 -1.4094124 3.2819843c-0.9024353 0.8704376 -2.1264 1.3594437 -3.4026337 1.3594437l0 0c-2.6576195 0 -4.812046 -2.0780392 -4.812046 -4.641428l0 0c0 -2.5633907 2.1544266 -4.641428 4.812046 -4.641428z" fill-rule="evenodd"/><path fill="#000000" fill-opacity="0.0" d="m82.22997 21.182522l0 0c2.6576233 0 4.81205 2.0780373 4.81205 4.641428l0 0c0 1.2309837 -0.5069809 2.4115486 -1.4094162 3.2819843c-0.9024353 0.8704376 -2.1263962 1.3594437 -3.4026337 1.3594437l0 0c-2.6576157 0 -4.812042 -2.0780392 -4.812042 -4.641428l0 0c0 -2.5633907 2.1544266 -4.641428 4.812042 -4.641428z" fill-rule="evenodd"/><path stroke="#4a86e8" stroke-width="1.0" stroke-linejoin="round" stroke-linecap="butt" d="m82.22997 21.182522l0 0c2.6576233 0 4.81205 2.0780373 4.81205 4.641428l0 0c0 1.2309837 -0.5069809 2.4115486 -1.4094162 3.2819843c-0.9024353 0.8704376 -2.1263962 1.3594437 -3.4026337 1.3594437l0 0c-2.6576157 0 -4.812042 -2.0780392 -4.812042 -4.641428l0 0c0 -2.5633907 2.1544266 -4.641428 4.812042 -4.641428z" fill-rule="evenodd"/><path fill="#000000" fill-opacity="0.0" d="m35.87658 69.82503l0 0c2.6576195 0 4.812046 2.078041 4.812046 4.6414337l0 0c0 1.2309799 -0.5069809 2.4115448 -1.4094162 3.2819824c-0.9024315 0.8704376 -2.1263962 1.3594437 -3.4026299 1.3594437l0 0c-2.6576195 0 -4.812048 -2.078041 -4.812048 -4.641426l0 0c0 -2.5633926 2.1544285 -4.6414337 4.812048 -4.6414337z" fill-rule="evenodd"/><path stroke="#4a86e8" stroke-width="1.0" stroke-linejoin="round" stroke-linecap="butt" d="m35.87658 69.82503l0 0c2.6576195 0 4.812046 2.078041 4.812046 4.6414337l0 0c0 1.2309799 -0.5069809 2.4115448 -1.4094162 3.2819824c-0.9024315 0.8704376 -2.1263962 1.3594437 -3.4026299 1.3594437l0 0c-2.6576195 0 -4.812048 -2.078041 -4.812048 -4.641426l0 0c0 -2.5633926 2.1544285 -4.6414337 4.812048 -4.6414337z" fill-rule="evenodd"/><path fill="#000000" fill-opacity="0.0" d="m66.67635 69.82503l0 0c2.6576157 0 4.812042 2.078041 4.812042 4.6414337l0 0c0 1.2309799 -0.5069809 2.4115448 -1.4094162 3.2819824c-0.9024353 0.8704376 -2.1263962 1.3594437 -3.402626 1.3594437l0 0c-2.6576233 0 -4.81205 -2.078041 -4.81205 -4.641426l0 0c0 -2.5633926 2.1544266 -4.6414337 4.81205 -4.6414337z" fill-rule="evenodd"/><path stroke="#4a86e8" stroke-width="1.0" stroke-linejoin="round" stroke-linecap="butt" d="m66.67635 69.82503l0 0c2.6576157 0 4.812042 2.078041 4.812042 4.6414337l0 0c0 1.2309799 -0.5069809 2.4115448 -1.4094162 3.2819824c-0.9024353 0.8704376 -2.1263962 1.3594437 -3.402626 1.3594437l0 0c-2.6576233 0 -4.81205 -2.078041 -4.81205 -4.641426l0 0c0 -2.5633926 2.1544266 -4.6414337 4.81205 -4.6414337z" fill-rule="evenodd"/><path fill="#000000" fill-opacity="0.0" d="m97.47612 69.82503l0 0c2.6576233 0 4.81205 2.078041 4.81205 4.6414337l0 0c0 1.2309799 -0.5069809 2.4115448 -1.4094162 3.2819824c-0.9024353 0.8704376 -2.1263962 1.3594437 -3.4026337 1.3594437l0 0c-2.6576157 0 -4.812042 -2.078041 -4.812042 -4.641426l0 0c0 -2.5633926 2.1544266 -4.6414337 4.812042 -4.6414337z" fill-rule="evenodd"/><path stroke="#4a86e8" stroke-width="1.0" stroke-linejoin="round" stroke-linecap="butt" d="m97.47612 69.82503l0 0c2.6576233 0 4.81205 2.078041 4.81205 4.6414337l0 0c0 1.2309799 -0.5069809 2.4115448 -1.4094162 3.2819824c-0.9024353 0.8704376 -2.1263962 1.3594437 -3.4026337 1.3594437l0 0c-2.6576157 0 -4.812042 -2.078041 -4.812042 -4.641426l0 0c0 -2.5633926 2.1544266 -4.6414337 4.812042 -4.6414337z" fill-rule="evenodd"/><path fill="#000000" fill-opacity="0.0" d="m66.67635 118.46867l0 0c2.6576157 0 4.812042 2.078041 4.812042 4.641426l0 0c0 1.2309875 -0.5069809 2.4115524 -1.4094162 3.28199c-0.9024353 0.8704376 -2.1263962 1.3594437 -3.402626 1.3594437l0 0c-2.6576233 0 -4.81205 -2.078041 -4.81205 -4.6414337l0 0c0 -2.563385 2.1544266 -4.641426 4.81205 -4.641426z" fill-rule="evenodd"/><path stroke="#4a86e8" stroke-width="1.0" stroke-linejoin="round" stroke-linecap="butt" d="m66.67635 118.46867l0 0c2.6576157 0 4.812042 2.078041 4.812042 4.641426l0 0c0 1.2309875 -0.5069809 2.4115524 -1.4094162 3.28199c-0.9024353 0.8704376 -2.1263962 1.3594437 -3.402626 1.3594437l0 0c-2.6576233 0 -4.81205 -2.078041 -4.81205 -4.6414337l0 0c0 -2.563385 2.1544266 -4.641426 4.81205 -4.641426z" fill-rule="evenodd"/><path fill="#000000" fill-opacity="0.0" d="m97.47612 118.46867l0 0c2.6576233 0 4.81205 2.078041 4.81205 4.641426l0 0c0 1.2309875 -0.5069809 2.4115524 -1.4094162 3.28199c-0.9024353 0.8704376 -2.1263962 1.3594437 -3.4026337 1.3594437l0 0c-2.6576157 0 -4.812042 -2.078041 -4.812042 -4.6414337l0 0c0 -2.563385 2.1544266 -4.641426 4.812042 -4.641426z" fill-rule="evenodd"/><path stroke="#4a86e8" stroke-width="1.0" stroke-linejoin="round" stroke-linecap="butt" d="m97.47612 118.46867l0 0c2.6576233 0 4.81205 2.078041 4.81205 4.641426l0 0c0 1.2309875 -0.5069809 2.4115524 -1.4094162 3.28199c-0.9024353 0.8704376 -2.1263962 1.3594437 -3.4026337 1.3594437l0 0c-2.6576157 0 -4.812042 -2.078041 -4.812042 -4.6414337l0 0c0 -2.563385 2.1544266 -4.641426 4.812042 -4.641426z" fill-rule="evenodd"/><path fill="#000000" fill-opacity="0.0" d="m82.07623 118.46867l0 0c2.6576233 0 4.81205 2.078041 4.81205 4.641426l0 0c0 1.2309875 -0.5069809 2.4115524 -1.4094162 3.28199c-0.9024353 0.8704376 -2.1263962 1.3594437 -3.4026337 1.3594437l0 0c-2.6576157 0 -4.812042 -2.078041 -4.812042 -4.6414337l0 0c0 -2.563385 2.1544266 -4.641426 4.812042 -4.641426z" fill-rule="evenodd"/><path stroke="#4a86e8" stroke-width="1.0" stroke-linejoin="round" stroke-linecap="butt" d="m82.07623 118.46867l0 0c2.6576233 0 4.81205 2.078041 4.81205 4.641426l0 0c0 1.2309875 -0.5069809 2.4115524 -1.4094162 3.28199c-0.9024353 0.8704376 -2.1263962 1.3594437 -3.4026337 1.3594437l0 0c-2.6576157 0 -4.812042 -2.078041 -4.812042 -4.6414337l0 0c0 -2.563385 2.1544266 -4.641426 4.812042 -4.641426z" fill-rule="evenodd"/><path fill="#000000" fill-opacity="0.0" d="m51.276466 118.46867l0 0c2.6576195 0 4.812046 2.078041 4.812046 4.641426l0 0c0 1.2309875 -0.5069809 2.4115524 -1.4094162 3.28199c-0.9024353 0.8704376 -2.1263962 1.3594437 -3.4026299 1.3594437l0 0c-2.6576233 0 -4.81205 -2.078041 -4.81205 -4.6414337l0 0c0 -2.563385 2.1544266 -4.641426 4.81205 -4.641426z" fill-rule="evenodd"/><path stroke="#4a86e8" stroke-width="1.0" stroke-linejoin="round" stroke-linecap="butt" d="m51.276466 118.46867l0 0c2.6576195 0 4.812046 2.078041 4.812046 4.641426l0 0c0 1.2309875 -0.5069809 2.4115524 -1.4094162 3.28199c-0.9024353 0.8704376 -2.1263962 1.3594437 -3.4026299 1.3594437l0 0c-2.6576233 0 -4.81205 -2.078041 -4.81205 -4.6414337l0 0c0 -2.563385 2.1544266 -4.641426 4.81205 -4.641426z" fill-rule="evenodd"/><path fill="#000000" fill-opacity="0.0" d="m35.874317 118.46867l0 0c2.6576195 0 4.81205 2.078041 4.81205 4.641426l0 0c0 1.2309875 -0.5069847 2.4115524 -1.4094162 3.28199c-0.9024353 0.8704376 -2.1264 1.3594437 -3.4026337 1.3594437l0 0c-2.6576195 0 -4.812046 -2.078041 -4.812046 -4.6414337l0 0c0 -2.563385 2.1544266 -4.641426 4.812046 -4.641426z" fill-rule="evenodd"/><path stroke="#4a86e8" stroke-width="1.0" stroke-linejoin="round" stroke-linecap="butt" d="m35.874317 118.46867l0 0c2.6576195 0 4.81205 2.078041 4.81205 4.641426l0 0c0 1.2309875 -0.5069847 2.4115524 -1.4094162 3.28199c-0.9024353 0.8704376 -2.1264 1.3594437 -3.4026337 1.3594437l0 0c-2.6576195 0 -4.812046 -2.078041 -4.812046 -4.6414337l0 0c0 -2.563385 2.1544266 -4.641426 4.812046 -4.641426z" fill-rule="evenodd"/><path fill="#000000" fill-opacity="0.0" d="m35.874317 118.46867l0 -39.37008" fill-rule="evenodd"/><path stroke="#4a86e8" stroke-width="1.0" stroke-linejoin="round" stroke-linecap="butt" d="m35.874317 118.46867l0 -39.37008" fill-rule="evenodd"/><path fill="#000000" fill-opacity="0.0" d="m97.47612 79.10789l-15.401573 39.37008" fill-rule="evenodd"/><path stroke="#4a86e8" stroke-width="1.0" stroke-linejoin="round" stroke-linecap="butt" d="m97.47612 79.10789l-15.401573 39.37008" fill-rule="evenodd"/><path fill="#000000" fill-opacity="0.0" d="m97.47612 79.10789l0 39.37008" fill-rule="evenodd"/><path stroke="#4a86e8" stroke-width="1.0" stroke-linejoin="round" stroke-linecap="butt" d="m97.47612 79.10789l0 39.37008" fill-rule="evenodd"/><path fill="#000000" fill-opacity="0.0" d="m40.688625 74.46646l21.165356 0" fill-rule="evenodd"/><path stroke="#4a86e8" stroke-width="1.0" stroke-linejoin="round" stroke-linecap="butt" d="m40.688625 74.46646l21.165356 0" fill-rule="evenodd"/><path fill="#000000" fill-opacity="0.0" d="m92.66408 74.46646l-21.16536 0" fill-rule="evenodd"/><path stroke="#4a86e8" stroke-width="1.0" stroke-linejoin="round" stroke-linecap="butt" d="m92.66408 74.46646l-21.16536 0" fill-rule="evenodd"/><path fill="#000000" fill-opacity="0.0" d="m95.23657 65.83238l63.11812 0l0 65.98425l-63.11812 0z" fill-rule="evenodd"/><path fill="#4a86e8" d="m114.6272 95.05301q-1.0625 0 -1.875 -0.4375q-0.796875 -0.4375 -1.25 -1.328125q-0.453125 -0.890625 -0.453125 -2.25q0 -1.421875 0.46875 -2.328125q0.484375 -0.90625 1.3125 -1.34375q0.84375 -0.4375 1.921875 -0.4375q0.578125 0 1.125 0.125q0.546875 0.109375 0.90625 0.28125l-0.359375 1.0q-0.359375 -0.140625 -0.828125 -0.25q-0.46875 -0.125 -0.875 -0.125q-0.8125 0 -1.359375 0.359375q-0.546875 0.34375 -0.8125 1.03125q-0.265625 0.671875 -0.265625 1.671875q0 0.953125 0.25 1.625q0.265625 0.671875 0.78125 1.03125q0.53125 0.34375 1.3125 0.34375q0.625 0 1.125 -0.125q0.5 -0.140625 0.90625 -0.3125l0 1.0625q-0.390625 0.1875 -0.875 0.296875q-0.484375 0.109375 -1.15625 0.109375zm6.067276 3.375q-1.546875 0 -2.390625 -0.578125q-0.828125 -0.5625 -0.828125 -1.609375q0 -0.734375 0.46875 -1.265625q0.46875 -0.515625 1.296875 -0.6875q-0.296875 -0.140625 -0.515625 -0.421875q-0.21875 -0.296875 -0.21875 -0.65625q0 -0.4375 0.234375 -0.765625q0.234375 -0.328125 0.734375 -0.625q-0.609375 -0.25 -1.0 -0.84375q-0.375 -0.59375 -0.375 -1.390625q0 -0.84375 0.34375 -1.4375q0.34375 -0.609375 1.015625 -0.921875q0.671875 -0.3125 1.609375 -0.3125q0.203125 0 0.40625 0.015625q0.21875 0.015625 0.40625 0.046875q0.203125 0.03125 0.34375 0.078125l2.703125 0l0 0.765625l-1.453125 0.1875q0.21875 0.265625 0.359375 0.671875q0.140625 0.390625 0.140625 0.859375q0 1.1875 -0.796875 1.875q-0.796875 0.6875 -2.171875 0.6875q-0.34375 0 -0.6875 -0.0625q-0.34375 0.203125 -0.53125 0.4375q-0.171875 0.234375 -0.171875 0.546875q0 0.21875 0.140625 0.359375q0.140625 0.140625 0.390625 0.203125q0.265625 0.046875 0.640625 0.046875l1.390625 0q1.28125 0 1.953125 0.546875q0.6875 0.53125 0.6875 1.5625q0 1.296875 -1.0625 1.984375q-1.046875 0.703125 -3.0625 0.703125zm0.046875 -0.921875q0.96875 0 1.609375 -0.203125q0.640625 -0.1875 0.953125 -0.5625q0.328125 -0.375 0.328125 -0.875q0 -0.46875 -0.21875 -0.71875q-0.21875 -0.234375 -0.640625 -0.3125q-0.40625 -0.09375 -1.0 -0.09375l-1.359375 0q-0.53125 0 -0.9375 0.171875q-0.390625 0.171875 -0.609375 0.484375q-0.203125 0.328125 -0.203125 0.796875q0 0.640625 0.53125 0.96875q0.546875 0.34375 1.546875 0.34375zm0.296875 -6.265625q0.859375 0 1.28125 -0.421875q0.4375 -0.4375 0.4375 -1.265625q0 -0.875 -0.4375 -1.3125q-0.4375 -0.453125 -1.296875 -0.453125q-0.8125 0 -1.25 0.453125q-0.4375 0.453125 -0.4375 1.328125q0 0.8125 0.4375 1.25q0.453125 0.421875 1.265625 0.421875zm9.145386 -4.3125q1.390625 0 2.109375 0.6875q0.71875 0.671875 0.71875 2.1875l0 5.109375l-1.171875 0l0 -5.03125q0 -0.984375 -0.453125 -1.46875q-0.453125 -0.484375 -1.375 -0.484375q-1.296875 0 -1.828125 0.734375q-0.53125 0.734375 -0.53125 2.140625l0 4.109375l-1.1875 0l0 -7.84375l0.96875 0l0.171875 1.125l0.0625 0q0.25 -0.40625 0.640625 -0.6875q0.390625 -0.28125 0.859375 -0.421875q0.484375 -0.15625 1.015625 -0.15625z" fill-rule="nonzero"/><path fill="#4a86e8" d="m117.95532 112.51238l-0.75 -2.484375l-3.8125 0l-0.765625 2.484375l-2.390625 0l3.6875 -10.5l2.71875 0l3.703125 10.5l-2.390625 0zm-1.28125 -4.34375l-0.765625 -2.4375q-0.0625 -0.25 -0.1875 -0.625q-0.109375 -0.390625 -0.234375 -0.78125q-0.125 -0.40625 -0.1875 -0.6875q-0.078125 0.28125 -0.203125 0.71875q-0.125 0.4375 -0.234375 0.828125q-0.109375 0.375 -0.171875 0.546875l-0.75 2.4375l2.734375 0zm4.9869537 4.34375l0 -10.46875l2.21875 0l0 10.46875l-2.21875 0z" fill-rule="nonzero"/><path fill="#000000" fill-opacity="0.0" d="m758.1031 124.2496l43.684998 0l0 57.92125l-43.684998 0z" fill-rule="evenodd"/><path fill="#4a86e8" d="m779.71246 151.43147l0.390625 0q0.625 0 1.0625 0.453125q0.4375 0.4375 0.4375 1.03125q0 0.65625 -0.453125 1.09375q-0.4375 0.421875 -1.046875 0.421875l-0.390625 0q-0.625 0 -1.078125 -0.4375q-0.4375 -0.4375 -0.4375 -1.046875q0 -0.65625 0.453125 -1.078125q0.453125 -0.4375 1.0625 -0.4375zm0 6.90625l0.390625 0q0.625 0 1.0625 0.4375q0.4375 0.4375 0.4375 1.0625q0 0.640625 -0.453125 1.078125q-0.4375 0.421875 -1.046875 0.421875l-0.390625 0q-0.625 0 -1.078125 -0.4375q-0.4375 -0.4375 -0.4375 -1.046875q0 -0.640625 0.453125 -1.078125q0.453125 -0.4375 1.0625 -0.4375z" fill-rule="nonzero"/><path fill="#000000" fill-opacity="0.0" d="m604.0939 135.2948l16.031494 0" fill-rule="evenodd"/><path stroke="#4a86e8" stroke-width="1.0" stroke-linejoin="round" stroke-linecap="butt" d="m604.0939 135.2948l16.031494 0" fill-rule="evenodd"/><path fill="#000000" fill-opacity="0.0" d="m621.59015 97.568l21.259827 38.614174" fill-rule="evenodd"/><path stroke="#4a86e8" stroke-width="1.0" stroke-linejoin="round" stroke-linecap="butt" d="m621.59015 97.568l21.259827 38.614174" fill-rule="evenodd"/><path fill="#000000" fill-opacity="0.0" d="m602.6175 97.568l-21.259827 38.614174" fill-rule="evenodd"/><path stroke="#4a86e8" stroke-width="1.0" stroke-linejoin="round" stroke-linecap="butt" d="m602.6175 97.568l-21.259827 38.614174" fill-rule="evenodd"/><g filter="url(#shadowFilter-p.6)"><use xlink:href="#p.6" transform="matrix(1.0 0.0 0.0 1.0 0.0 2.0)"/></g><defs><filter id="shadowFilter-p.6" filterUnits="userSpaceOnUse"><feGaussianBlur in="SourceAlpha" stdDeviation="2.0" result="blur"/><feComponentTransfer in="blur" color-interpolation-filters="sRGB"><feFuncR type="linear" slope="0" intercept="0.0"/><feFuncG type="linear" slope="0" intercept="0.0"/><feFuncB type="linear" slope="0" intercept="0.0"/><feFuncA type="linear" slope="0.22" intercept="0"/></feComponentTransfer></filter></defs><g id="p.6"><path fill="#4a86e8" d="m612.1055 114.14962l0 0c1.5654907 0 2.8345947 1.2197571 2.8345947 2.724411l0 0c0 0.72255707 -0.29864502 1.4155197 -0.8302002 1.926445c-0.5316162 0.5109253 -1.2526245 0.797966 -2.0043945 0.797966l0 0c-1.5655518 0 -2.8346558 -1.2197647 -2.8346558 -2.724411l0 0c0 -1.5046539 1.269104 -2.724411 2.8346558 -2.724411z" fill-rule="evenodd"/><path stroke="#4a86e8" stroke-width="1.0" stroke-linejoin="round" stroke-linecap="butt" d="m612.1055 114.14962l0 0c1.5654907 0 2.8345947 1.2197571 2.8345947 2.724411l0 0c0 0.72255707 -0.29864502 1.4155197 -0.8302002 1.926445c-0.5316162 0.5109253 -1.2526245 0.797966 -2.0043945 0.797966l0 0c-1.5655518 0 -2.8346558 -1.2197647 -2.8346558 -2.724411l0 0c0 -1.5046539 1.269104 -2.724411 2.8346558 -2.724411z" fill-rule="evenodd"/></g><path fill="#000000" fill-opacity="0.0" d="m549.84 141.05698l124.53546 0l0 65.98424l-124.53546 0z" fill-rule="evenodd"/><path fill="#4a86e8" d="m604.515 170.27759q-1.0625 0 -1.875 -0.4375q-0.796875 -0.4375 -1.25 -1.328125q-0.453125 -0.890625 -0.453125 -2.25q0 -1.421875 0.46875 -2.328125q0.484375 -0.90625 1.3125 -1.34375q0.84375 -0.4375 1.921875 -0.4375q0.578125 0 1.125 0.125q0.546875 0.109375 0.90625 0.28125l-0.359375 1.0q-0.359375 -0.140625 -0.828125 -0.25q-0.46875 -0.125 -0.875 -0.125q-0.8125 0 -1.359375 0.359375q-0.546875 0.34375 -0.8125 1.03125q-0.265625 0.671875 -0.265625 1.671875q0 0.953125 0.25 1.625q0.265625 0.671875 0.78125 1.03125q0.53125 0.34375 1.3125 0.34375q0.625 0 1.125 -0.125q0.5 -0.140625 0.90625 -0.3125l0 1.0625q-0.390625 0.1875 -0.875 0.296875q-0.484375 0.109375 -1.15625 0.109375zm6.067322 3.3750153q-1.546875 0 -2.390625 -0.578125q-0.828125 -0.56251526 -0.828125 -1.6093903q0 -0.734375 0.46875 -1.265625q0.46875 -0.515625 1.296875 -0.6875q-0.296875 -0.140625 -0.515625 -0.421875q-0.21875 -0.296875 -0.21875 -0.65625q0 -0.4375 0.234375 -0.765625q0.234375 -0.328125 0.734375 -0.625q-0.609375 -0.25 -1.0 -0.84375q-0.375 -0.59375 -0.375 -1.390625q0 -0.84375 0.34375 -1.4375q0.34375 -0.609375 1.015625 -0.921875q0.671875 -0.3125 1.609375 -0.3125q0.203125 0 0.40625 0.015625q0.21875 0.015625 0.40625 0.046875q0.203125 0.03125 0.34375 0.078125l2.703125 0l0 0.765625l-1.453125 0.1875q0.21875 0.265625 0.359375 0.671875q0.140625 0.390625 0.140625 0.859375q0 1.1875 -0.796875 1.875q-0.796875 0.6875 -2.171875 0.6875q-0.34375 0 -0.6875 -0.0625q-0.34375 0.203125 -0.53125 0.4375q-0.171875 0.234375 -0.171875 0.546875q0 0.21875 0.140625 0.359375q0.140625 0.140625 0.390625 0.203125q0.265625 0.046875 0.640625 0.046875l1.390625 0q1.28125 0 1.953125 0.546875q0.6875 0.53125 0.6875 1.5625q0 1.296875 -1.0625 1.984375q-1.046875 0.70314026 -3.0625 0.70314026zm0.046875 -0.92189026q0.96875 0 1.609375 -0.203125q0.640625 -0.1875 0.953125 -0.5625q0.328125 -0.375 0.328125 -0.875q0 -0.46875 -0.21875 -0.71875q-0.21875 -0.234375 -0.640625 -0.3125q-0.40625 -0.09375 -1.0 -0.09375l-1.359375 0q-0.53125 0 -0.9375 0.171875q-0.390625 0.171875 -0.609375 0.484375q-0.203125 0.328125 -0.203125 0.796875q0 0.640625 0.53125 0.96875q0.546875 0.34375 1.546875 0.34375zm0.296875 -6.265625q0.859375 0 1.28125 -0.421875q0.4375 -0.4375 0.4375 -1.265625q0 -0.875 -0.4375 -1.3125q-0.4375 -0.453125 -1.296875 -0.453125q-0.8125 0 -1.25 0.453125q-0.4375 0.453125 -0.4375 1.328125q0 0.8125 0.4375 1.25q0.453125 0.421875 1.265625 0.421875zm9.145386 -4.3125q1.390625 0 2.109375 0.6875q0.71875 0.671875 0.71875 2.1875l0 5.109375l-1.171875 0l0 -5.03125q0 -0.984375 -0.453125 -1.46875q-0.453125 -0.484375 -1.375 -0.484375q-1.296875 0 -1.828125 0.734375q-0.53125 0.734375 -0.53125 2.140625l0 4.109375l-1.1875 0l0 -7.84375l0.96875 0l0.171875 1.125l0.0625 0q0.25 -0.40625 0.640625 -0.6875q0.390625 -0.28125 0.859375 -0.421875q0.484375 -0.15625 1.015625 -0.15625z" fill-rule="nonzero"/><path fill="#4a86e8" d="m612.34454 187.73697l-0.75 -2.484375l-3.8125 0l-0.765625 2.484375l-2.390625 0l3.6875 -10.5l2.71875 0l3.703125 10.5l-2.390625 0zm-1.28125 -4.34375l-0.765625 -2.4375q-0.0625 -0.25 -0.1875 -0.625q-0.109375 -0.390625 -0.234375 -0.78125q-0.125 -0.40625 -0.1875 -0.6875q-0.078125 0.28125 -0.203125 0.71875q-0.125 0.4375 -0.234375 0.828125q-0.109375 0.375 -0.171875 0.546875l-0.75 2.4375l2.734375 0zm4.9869385 4.34375l0 -10.46875l2.21875 0l0 10.46875l-2.21875 0z" fill-rule="nonzero"/><path fill="#000000" fill-opacity="0.0" d="m620.1297 1.8952544l17.826782 35.55905" fill-rule="evenodd"/><path stroke="#4a86e8" stroke-width="1.0" stroke-linejoin="round" stroke-linecap="butt" d="m620.1297 1.8952544l17.826782 35.55905" fill-rule="evenodd"/><path fill="#000000" fill-opacity="0.0" d="m620.1297 1.8952544l-17.826782 35.55905" fill-rule="evenodd"/><path stroke="#4a86e8" stroke-width="1.0" stroke-linejoin="round" stroke-linecap="butt" d="m620.1297 1.8952544l-17.826782 35.55905" fill-rule="evenodd"/><path fill="#000000" fill-opacity="0.0" d="m619.5404 24.704618l0 16.346457" fill-rule="evenodd"/><path stroke="#4a86e8" stroke-width="1.0" stroke-linejoin="round" stroke-linecap="butt" d="m619.5404 24.704618l0 16.346457" fill-rule="evenodd"/><path fill="#000000" fill-opacity="0.0" d="m577.7816 41.41965l13.417297 0" fill-rule="evenodd"/><path stroke="#4a86e8" stroke-width="1.0" stroke-linejoin="round" stroke-linecap="butt" d="m577.7816 41.41965l13.417297 0" fill-rule="evenodd"/><path fill="#000000" fill-opacity="0.0" d="m584.5071 1.8952544l17.826782 35.55905" fill-rule="evenodd"/><path stroke="#4a86e8" stroke-width="1.0" stroke-linejoin="round" stroke-linecap="butt" d="m584.5071 1.8952544l17.826782 35.55905" fill-rule="evenodd"/><path fill="#000000" fill-opacity="0.0" d="m584.5071 1.8952544l-17.826782 35.55905" fill-rule="evenodd"/><path stroke="#4a86e8" stroke-width="1.0" stroke-linejoin="round" stroke-linecap="butt" d="m584.5071 1.8952544l-17.826782 35.55905" fill-rule="evenodd"/><g filter="url(#shadowFilter-p.7)"><use xlink:href="#p.7" transform="matrix(1.0 0.0 0.0 1.0 0.0 2.0)"/></g><defs><filter id="shadowFilter-p.7" filterUnits="userSpaceOnUse"><feGaussianBlur in="SourceAlpha" stdDeviation="2.0" result="blur"/><feComponentTransfer in="blur" color-interpolation-filters="sRGB"><feFuncR type="linear" slope="0" intercept="0.0"/><feFuncG type="linear" slope="0" intercept="0.0"/><feFuncB type="linear" slope="0" intercept="0.0"/><feFuncA type="linear" slope="0.13" intercept="0"/></feComponentTransfer></filter></defs><g id="p.7"><path fill="#ffffff" d="m584.5071 -6.041754l0 0c2.2612915 0 4.0944824 1.7767601 4.0944824 3.9685042l0 0c0 1.0525126 -0.43139648 2.061917 -1.1992798 2.8061562c-0.76782227 0.74423885 -1.8092651 1.1623479 -2.8952026 1.1623479l0 0c-2.2613525 0 -4.0944824 -1.7767597 -4.0944824 -3.968504l0 0c0 -2.191744 1.8331299 -3.9685042 4.0944824 -3.9685042z" fill-rule="evenodd"/><path stroke="#4a86e8" stroke-width="1.0" stroke-linejoin="round" stroke-linecap="butt" d="m584.5071 -6.041754l0 0c2.2612915 0 4.0944824 1.7767601 4.0944824 3.9685042l0 0c0 1.0525126 -0.43139648 2.061917 -1.1992798 2.8061562c-0.76782227 0.74423885 -1.8092651 1.1623479 -2.8952026 1.1623479l0 0c-2.2613525 0 -4.0944824 -1.7767597 -4.0944824 -3.968504l0 0c0 -2.191744 1.8331299 -3.9685042 4.0944824 -3.9685042z" fill-rule="evenodd"/></g><g filter="url(#shadowFilter-p.8)"><use xlink:href="#p.8" transform="matrix(1.0 0.0 0.0 1.0 0.0 2.0)"/></g><defs><filter id="shadowFilter-p.8" filterUnits="userSpaceOnUse"><feGaussianBlur in="SourceAlpha" stdDeviation="2.0" result="blur"/><feComponentTransfer in="blur" color-interpolation-filters="sRGB"><feFuncR type="linear" slope="0" intercept="0.0"/><feFuncG type="linear" slope="0" intercept="0.0"/><feFuncB type="linear" slope="0" intercept="0.0"/><feFuncA type="linear" slope="0.13" intercept="0"/></feComponentTransfer></filter></defs><g id="p.8"><path fill="#ffffff" d="m566.69574 37.444927l0 0c2.2613525 0 4.0944824 1.7767601 4.0944824 3.968502l0 0c0 1.0525131 -0.43133545 2.0619202 -1.1992188 2.8061562c-0.7678833 0.7442398 -1.8093262 1.1623497 -2.8952637 1.1623497l0 0c-2.2612915 0 -4.0944824 -1.7767601 -4.0944824 -3.9685059l0 0c0 -2.191742 1.8331909 -3.968502 4.0944824 -3.968502z" fill-rule="evenodd"/><path stroke="#4a86e8" stroke-width="1.0" stroke-linejoin="round" stroke-linecap="butt" d="m566.69574 37.444927l0 0c2.2613525 0 4.0944824 1.7767601 4.0944824 3.968502l0 0c0 1.0525131 -0.43133545 2.0619202 -1.1992188 2.8061562c-0.7678833 0.7442398 -1.8093262 1.1623497 -2.8952637 1.1623497l0 0c-2.2612915 0 -4.0944824 -1.7767601 -4.0944824 -3.9685059l0 0c0 -2.191742 1.8331909 -3.968502 4.0944824 -3.968502z" fill-rule="evenodd"/></g><g filter="url(#shadowFilter-p.9)"><use xlink:href="#p.9" transform="matrix(1.0 0.0 0.0 1.0 0.0 2.0)"/></g><defs><filter id="shadowFilter-p.9" filterUnits="userSpaceOnUse"><feGaussianBlur in="SourceAlpha" stdDeviation="2.0" result="blur"/><feComponentTransfer in="blur" color-interpolation-filters="sRGB"><feFuncR type="linear" slope="0" intercept="0.0"/><feFuncG type="linear" slope="0" intercept="0.0"/><feFuncB type="linear" slope="0" intercept="0.0"/><feFuncA type="linear" slope="0.13" intercept="0"/></feComponentTransfer></filter></defs><g id="p.9"><path fill="#ffffff" d="m602.31836 37.444927l0 0c2.2613525 0 4.0944824 1.7767601 4.0944824 3.968502l0 0c0 1.0525131 -0.43133545 2.0619202 -1.1992188 2.8061562c-0.7678833 0.7442398 -1.8093262 1.1623497 -2.8952637 1.1623497l0 0c-2.2612915 0 -4.0944824 -1.7767601 -4.0944824 -3.9685059l0 0c0 -2.191742 1.8331909 -3.968502 4.0944824 -3.968502z" fill-rule="evenodd"/><path stroke="#4a86e8" stroke-width="1.0" stroke-linejoin="round" stroke-linecap="butt" d="m602.31836 37.444927l0 0c2.2613525 0 4.0944824 1.7767601 4.0944824 3.968502l0 0c0 1.0525131 -0.43133545 2.0619202 -1.1992188 2.8061562c-0.7678833 0.7442398 -1.8093262 1.1623497 -2.8952637 1.1623497l0 0c-2.2612915 0 -4.0944824 -1.7767601 -4.0944824 -3.9685059l0 0c0 -2.191742 1.8331909 -3.968502 4.0944824 -3.968502z" fill-rule="evenodd"/></g><g filter="url(#shadowFilter-p.10)"><use xlink:href="#p.10" transform="matrix(1.0 0.0 0.0 1.0 0.0 2.0)"/></g><defs><filter id="shadowFilter-p.10" filterUnits="userSpaceOnUse"><feGaussianBlur in="SourceAlpha" stdDeviation="2.0" result="blur"/><feComponentTransfer in="blur" color-interpolation-filters="sRGB"><feFuncR type="linear" slope="0" intercept="0.0"/><feFuncG type="linear" slope="0" intercept="0.0"/><feFuncB type="linear" slope="0" intercept="0.0"/><feFuncA type="linear" slope="0.13" intercept="0"/></feComponentTransfer></filter></defs><g id="p.10"><path fill="#ffffff" d="m620.1297 -6.041754l0 0c2.2612915 0 4.0944824 1.7767601 4.0944824 3.9685042l0 0c0 1.0525126 -0.43139648 2.061917 -1.1992188 2.8061562c-0.7678833 0.74423885 -1.8093262 1.1623479 -2.8952637 1.1623479l0 0c-2.2613525 0 -4.0944824 -1.7767597 -4.0944824 -3.968504l0 0c0 -2.191744 1.8331299 -3.9685042 4.0944824 -3.9685042z" fill-rule="evenodd"/><path stroke="#4a86e8" stroke-width="1.0" stroke-linejoin="round" stroke-linecap="butt" d="m620.1297 -6.041754l0 0c2.2612915 0 4.0944824 1.7767601 4.0944824 3.9685042l0 0c0 1.0525126 -0.43139648 2.061917 -1.1992188 2.8061562c-0.7678833 0.74423885 -1.8093262 1.1623479 -2.8952637 1.1623479l0 0c-2.2613525 0 -4.0944824 -1.7767597 -4.0944824 -3.968504l0 0c0 -2.191744 1.8331299 -3.9685042 4.0944824 -3.9685042z" fill-rule="evenodd"/></g><g filter="url(#shadowFilter-p.11)"><use xlink:href="#p.11" transform="matrix(1.0 0.0 0.0 1.0 0.0 2.0)"/></g><defs><filter id="shadowFilter-p.11" filterUnits="userSpaceOnUse"><feGaussianBlur in="SourceAlpha" stdDeviation="2.0" result="blur"/><feComponentTransfer in="blur" color-interpolation-filters="sRGB"><feFuncR type="linear" slope="0" intercept="0.0"/><feFuncG type="linear" slope="0" intercept="0.0"/><feFuncB type="linear" slope="0" intercept="0.0"/><feFuncA type="linear" slope="0.13" intercept="0"/></feComponentTransfer></filter></defs><g id="p.11"><path fill="#ffffff" d="m637.94104 37.444927l0 0c2.2612915 0 4.0944824 1.7767601 4.0944824 3.968502l0 0c0 1.0525131 -0.43139648 2.0619202 -1.1992798 2.8061562c-0.7678833 0.7442398 -1.8093262 1.1623497 -2.8952026 1.1623497l0 0c-2.2613525 0 -4.0945435 -1.7767601 -4.0945435 -3.9685059l0 0c0 -2.191742 1.8331909 -3.968502 4.0945435 -3.968502z" fill-rule="evenodd"/><path stroke="#4a86e8" stroke-width="1.0" stroke-linejoin="round" stroke-linecap="butt" d="m637.94104 37.444927l0 0c2.2612915 0 4.0944824 1.7767601 4.0944824 3.968502l0 0c0 1.0525131 -0.43139648 2.0619202 -1.1992798 2.8061562c-0.7678833 0.7442398 -1.8093262 1.1623497 -2.8952026 1.1623497l0 0c-2.2613525 0 -4.0945435 -1.7767601 -4.0945435 -3.9685059l0 0c0 -2.191742 1.8331909 -3.968502 4.0945435 -3.968502z" fill-rule="evenodd"/></g><path fill="#000000" fill-opacity="0.0" d="m641.24243 -8.842423l117.102356 0l0 65.98425l-117.102356 0z" fill-rule="evenodd"/><path fill="#4a86e8" d="m660.63306 20.378202q-1.0625 0 -1.875 -0.4375q-0.796875 -0.4375 -1.25 -1.328125q-0.453125 -0.890625 -0.453125 -2.25q0 -1.421876 0.46875 -2.328126q0.484375 -0.90625 1.3125 -1.34375q0.84375 -0.4375 1.921875 -0.4375q0.578125 0 1.125 0.125q0.546875 0.109375 0.90625 0.28125l-0.359375 1.0q-0.359375 -0.140625 -0.828125 -0.25q-0.46875 -0.125 -0.875 -0.125q-0.8125 0 -1.359375 0.359375q-0.546875 0.34375 -0.8125 1.03125q-0.265625 0.671875 -0.265625 1.671876q0 0.953125 0.25 1.625q0.265625 0.671875 0.78125 1.03125q0.53125 0.34375 1.3125 0.34375q0.625 0 1.125 -0.125q0.5 -0.140625 0.90625 -0.3125l0 1.0625q-0.390625 0.1875 -0.875 0.296875q-0.484375 0.109375 -1.15625 0.109375zm6.0672607 3.375002q-1.546875 0 -2.390625 -0.578125q-0.828125 -0.5625019 -0.828125 -1.6093769q0 -0.734375 0.46875 -1.265625q0.46875 -0.515625 1.296875 -0.6875q-0.296875 -0.140625 -0.515625 -0.421875q-0.21875 -0.296875 -0.21875 -0.65625q0 -0.4375 0.234375 -0.765625q0.234375 -0.328125 0.734375 -0.625q-0.609375 -0.25 -1.0 -0.84375q-0.375 -0.59375095 -0.375 -1.390626q0 -0.84375 0.34375 -1.4375q0.34375 -0.609375 1.015625 -0.921875q0.671875 -0.3125 1.609375 -0.3125q0.203125 0 0.40625 0.015625q0.21875 0.015625 0.40625 0.046875q0.203125 0.03125 0.34375 0.078125l2.703125 0l0 0.765625l-1.453125 0.1875q0.21875 0.265625 0.359375 0.671875q0.140625 0.390625 0.140625 0.859375q0 1.187501 -0.796875 1.875001q-0.796875 0.6875 -2.171875 0.6875q-0.34375 0 -0.6875 -0.0625q-0.34375 0.203125 -0.53125 0.4375q-0.171875 0.234375 -0.171875 0.546875q0 0.21875 0.140625 0.359375q0.140625 0.140625 0.390625 0.203125q0.265625 0.046875 0.640625 0.046875l1.390625 0q1.28125 0 1.953125 0.546875q0.6875 0.53125 0.6875 1.5625q0 1.296875 -1.0625 1.984375q-1.046875 0.7031269 -3.0625 0.7031269zm0.046875 -0.9218769q0.96875 0 1.609375 -0.203125q0.640625 -0.1875 0.953125 -0.5625q0.328125 -0.375 0.328125 -0.875q0 -0.46875 -0.21875 -0.71875q-0.21875 -0.234375 -0.640625 -0.3125q-0.40625 -0.09375 -1.0 -0.09375l-1.359375 0q-0.53125 0 -0.9375 0.171875q-0.390625 0.171875 -0.609375 0.484375q-0.203125 0.328125 -0.203125 0.796875q0 0.640625 0.53125 0.96875q0.546875 0.34375 1.546875 0.34375zm0.296875 -6.265625q0.859375 0 1.28125 -0.421875q0.4375 -0.43750095 0.4375 -1.265626q0 -0.875 -0.4375 -1.3125q-0.4375 -0.453125 -1.296875 -0.453125q-0.8125 0 -1.25 0.453125q-0.4375 0.453125 -0.4375 1.328125q0 0.8125 0.4375 1.250001q0.453125 0.421875 1.265625 0.421875zm9.145386 -4.312501q1.390625 0 2.109375 0.6875q0.71875 0.671875 0.71875 2.1875l0 5.109376l-1.171875 0l0 -5.031251q0 -0.984375 -0.453125 -1.46875q-0.453125 -0.484375 -1.375 -0.484375q-1.296875 0 -1.828125 0.734375q-0.53125 0.734375 -0.53125 2.140626l0 4.109375l-1.1875 0l0 -7.843751l0.96875 0l0.171875 1.125l0.0625 0q0.25 -0.40625 0.640625 -0.6875q0.390625 -0.28125 0.859375 -0.421875q0.484375 -0.15625 1.015625 -0.15625z" fill-rule="nonzero"/><path fill="#4a86e8" d="m663.9612 37.837578l-0.75 -2.484375l-3.8125 0l-0.765625 2.484375l-2.390625 0l3.6875 -10.5l2.71875 0l3.703125 10.5l-2.390625 0zm-1.28125 -4.34375l-0.765625 -2.4375q-0.0625 -0.25 -0.1875 -0.625q-0.109375 -0.390625 -0.234375 -0.78125q-0.125 -0.40625 -0.1875 -0.6875q-0.078125 0.28125 -0.203125 0.71875q-0.125 0.4375 -0.234375 0.828125q-0.109375 0.375 -0.171875 0.546875l-0.75 2.4375l2.734375 0zm4.9869385 4.34375l0 -10.46875l2.21875 0l0 10.46875l-2.21875 0z" fill-rule="nonzero"/><path fill="#000000" fill-opacity="0.0" d="m843.2796 1.8952544l17.826782 35.55905" fill-rule="evenodd"/><path stroke="#4a86e8" stroke-width="1.0" stroke-linejoin="round" stroke-linecap="butt" d="m843.2796 1.8952544l17.826782 35.55905" fill-rule="evenodd"/><path fill="#000000" fill-opacity="0.0" d="m843.2796 1.8952544l-17.826782 35.55905" fill-rule="evenodd"/><path stroke="#4a86e8" stroke-width="1.0" stroke-linejoin="round" stroke-linecap="butt" d="m843.2796 1.8952544l-17.826782 35.55905" fill-rule="evenodd"/><path fill="#000000" fill-opacity="0.0" d="m800.9315 41.41965l13.417297 0" fill-rule="evenodd"/><path stroke="#4a86e8" stroke-width="1.0" stroke-linejoin="round" stroke-linecap="butt" d="m800.9315 41.41965l13.417297 0" fill-rule="evenodd"/><path fill="#000000" fill-opacity="0.0" d="m807.657 1.8952544l17.826721 35.55905" fill-rule="evenodd"/><path stroke="#4a86e8" stroke-width="1.0" stroke-linejoin="round" stroke-linecap="butt" d="m807.657 1.8952544l17.826721 35.55905" fill-rule="evenodd"/><path fill="#000000" fill-opacity="0.0" d="m807.657 1.8952544l-17.826782 35.55905" fill-rule="evenodd"/><path stroke="#4a86e8" stroke-width="1.0" stroke-linejoin="round" stroke-linecap="butt" d="m807.657 1.8952544l-17.826782 35.55905" fill-rule="evenodd"/><g filter="url(#shadowFilter-p.12)"><use xlink:href="#p.12" transform="matrix(1.0 0.0 0.0 1.0 0.0 2.0)"/></g><defs><filter id="shadowFilter-p.12" filterUnits="userSpaceOnUse"><feGaussianBlur in="SourceAlpha" stdDeviation="2.0" result="blur"/><feComponentTransfer in="blur" color-interpolation-filters="sRGB"><feFuncR type="linear" slope="0" intercept="0.0"/><feFuncG type="linear" slope="0" intercept="0.0"/><feFuncB type="linear" slope="0" intercept="0.0"/><feFuncA type="linear" slope="0.13" intercept="0"/></feComponentTransfer></filter></defs><g id="p.12"><path fill="#ffffff" d="m807.657 -6.041754l0 0c2.2612915 0 4.0944824 1.7767601 4.0944824 3.9685042l0 0c0 1.0525126 -0.43139648 2.061917 -1.1992798 2.8061562c-0.76782227 0.74423885 -1.8093262 1.1623479 -2.8952026 1.1623479l0 0c-2.2613525 0 -4.0944824 -1.7767597 -4.0944824 -3.968504l0 0c0 -2.191744 1.8331299 -3.9685042 4.0944824 -3.9685042z" fill-rule="evenodd"/><path stroke="#4a86e8" stroke-width="1.0" stroke-linejoin="round" stroke-linecap="butt" d="m807.657 -6.041754l0 0c2.2612915 0 4.0944824 1.7767601 4.0944824 3.9685042l0 0c0 1.0525126 -0.43139648 2.061917 -1.1992798 2.8061562c-0.76782227 0.74423885 -1.8093262 1.1623479 -2.8952026 1.1623479l0 0c-2.2613525 0 -4.0944824 -1.7767597 -4.0944824 -3.968504l0 0c0 -2.191744 1.8331299 -3.9685042 4.0944824 -3.9685042z" fill-rule="evenodd"/></g><g filter="url(#shadowFilter-p.13)"><use xlink:href="#p.13" transform="matrix(1.0 0.0 0.0 1.0 0.0 2.0)"/></g><defs><filter id="shadowFilter-p.13" filterUnits="userSpaceOnUse"><feGaussianBlur in="SourceAlpha" stdDeviation="2.0" result="blur"/><feComponentTransfer in="blur" color-interpolation-filters="sRGB"><feFuncR type="linear" slope="0" intercept="0.0"/><feFuncG type="linear" slope="0" intercept="0.0"/><feFuncB type="linear" slope="0" intercept="0.0"/><feFuncA type="linear" slope="0.13" intercept="0"/></feComponentTransfer></filter></defs><g id="p.13"><path fill="#ffffff" d="m789.84564 37.444927l0 0c2.2613525 0 4.0944824 1.7767601 4.0944824 3.968502l0 0c0 1.0525131 -0.43139648 2.0619202 -1.1992188 2.8061562c-0.7678833 0.7442398 -1.8093262 1.1623497 -2.8952637 1.1623497l0 0c-2.2612915 0 -4.0944824 -1.7767601 -4.0944824 -3.9685059l0 0c0 -2.191742 1.8331909 -3.968502 4.0944824 -3.968502z" fill-rule="evenodd"/><path stroke="#4a86e8" stroke-width="1.0" stroke-linejoin="round" stroke-linecap="butt" d="m789.84564 37.444927l0 0c2.2613525 0 4.0944824 1.7767601 4.0944824 3.968502l0 0c0 1.0525131 -0.43139648 2.0619202 -1.1992188 2.8061562c-0.7678833 0.7442398 -1.8093262 1.1623497 -2.8952637 1.1623497l0 0c-2.2612915 0 -4.0944824 -1.7767601 -4.0944824 -3.9685059l0 0c0 -2.191742 1.8331909 -3.968502 4.0944824 -3.968502z" fill-rule="evenodd"/></g><g filter="url(#shadowFilter-p.14)"><use xlink:href="#p.14" transform="matrix(1.0 0.0 0.0 1.0 0.0 2.0)"/></g><defs><filter id="shadowFilter-p.14" filterUnits="userSpaceOnUse"><feGaussianBlur in="SourceAlpha" stdDeviation="2.0" result="blur"/><feComponentTransfer in="blur" color-interpolation-filters="sRGB"><feFuncR type="linear" slope="0" intercept="0.0"/><feFuncG type="linear" slope="0" intercept="0.0"/><feFuncB type="linear" slope="0" intercept="0.0"/><feFuncA type="linear" slope="0.13" intercept="0"/></feComponentTransfer></filter></defs><g id="p.14"><path fill="#ffffff" d="m825.46826 37.444927l0 0c2.2613525 0 4.0944824 1.7767601 4.0944824 3.968502l0 0c0 1.0525131 -0.43133545 2.0619202 -1.1992188 2.8061562c-0.7678833 0.7442398 -1.8093262 1.1623497 -2.8952637 1.1623497l0 0c-2.2612915 0 -4.0944824 -1.7767601 -4.0944824 -3.9685059l0 0c0 -2.191742 1.8331909 -3.968502 4.0944824 -3.968502z" fill-rule="evenodd"/><path stroke="#4a86e8" stroke-width="1.0" stroke-linejoin="round" stroke-linecap="butt" d="m825.46826 37.444927l0 0c2.2613525 0 4.0944824 1.7767601 4.0944824 3.968502l0 0c0 1.0525131 -0.43133545 2.0619202 -1.1992188 2.8061562c-0.7678833 0.7442398 -1.8093262 1.1623497 -2.8952637 1.1623497l0 0c-2.2612915 0 -4.0944824 -1.7767601 -4.0944824 -3.9685059l0 0c0 -2.191742 1.8331909 -3.968502 4.0944824 -3.968502z" fill-rule="evenodd"/></g><g filter="url(#shadowFilter-p.15)"><use xlink:href="#p.15" transform="matrix(1.0 0.0 0.0 1.0 0.0 2.0)"/></g><defs><filter id="shadowFilter-p.15" filterUnits="userSpaceOnUse"><feGaussianBlur in="SourceAlpha" stdDeviation="2.0" result="blur"/><feComponentTransfer in="blur" color-interpolation-filters="sRGB"><feFuncR type="linear" slope="0" intercept="0.0"/><feFuncG type="linear" slope="0" intercept="0.0"/><feFuncB type="linear" slope="0" intercept="0.0"/><feFuncA type="linear" slope="0.13" intercept="0"/></feComponentTransfer></filter></defs><g id="p.15"><path fill="#ffffff" d="m843.2796 -6.041754l0 0c2.2612915 0 4.0944824 1.7767601 4.0944824 3.9685042l0 0c0 1.0525126 -0.43139648 2.061917 -1.1992798 2.8061562c-0.76782227 0.74423885 -1.8092651 1.1623479 -2.8952026 1.1623479l0 0c-2.2613525 0 -4.0944824 -1.7767597 -4.0944824 -3.968504l0 0c0 -2.191744 1.8331299 -3.9685042 4.0944824 -3.9685042z" fill-rule="evenodd"/><path stroke="#4a86e8" stroke-width="1.0" stroke-linejoin="round" stroke-linecap="butt" d="m843.2796 -6.041754l0 0c2.2612915 0 4.0944824 1.7767601 4.0944824 3.9685042l0 0c0 1.0525126 -0.43139648 2.061917 -1.1992798 2.8061562c-0.76782227 0.74423885 -1.8092651 1.1623479 -2.8952026 1.1623479l0 0c-2.2613525 0 -4.0944824 -1.7767597 -4.0944824 -3.968504l0 0c0 -2.191744 1.8331299 -3.9685042 4.0944824 -3.9685042z" fill-rule="evenodd"/></g><g filter="url(#shadowFilter-p.16)"><use xlink:href="#p.16" transform="matrix(1.0 0.0 0.0 1.0 0.0 2.0)"/></g><defs><filter id="shadowFilter-p.16" filterUnits="userSpaceOnUse"><feGaussianBlur in="SourceAlpha" stdDeviation="2.0" result="blur"/><feComponentTransfer in="blur" color-interpolation-filters="sRGB"><feFuncR type="linear" slope="0" intercept="0.0"/><feFuncG type="linear" slope="0" intercept="0.0"/><feFuncB type="linear" slope="0" intercept="0.0"/><feFuncA type="linear" slope="0.13" intercept="0"/></feComponentTransfer></filter></defs><g id="p.16"><path fill="#ffffff" d="m861.0909 37.444927l0 0c2.2613525 0 4.0944824 1.7767601 4.0944824 3.968502l0 0c0 1.0525131 -0.43133545 2.0619202 -1.1992188 2.8061562c-0.7678833 0.7442398 -1.8093262 1.1623497 -2.8952637 1.1623497l0 0c-2.2612915 0 -4.0944824 -1.7767601 -4.0944824 -3.9685059l0 0c0 -2.191742 1.8331909 -3.968502 4.0944824 -3.968502z" fill-rule="evenodd"/><path stroke="#4a86e8" stroke-width="1.0" stroke-linejoin="round" stroke-linecap="butt" d="m861.0909 37.444927l0 0c2.2613525 0 4.0944824 1.7767601 4.0944824 3.968502l0 0c0 1.0525131 -0.43133545 2.0619202 -1.1992188 2.8061562c-0.7678833 0.7442398 -1.8093262 1.1623497 -2.8952637 1.1623497l0 0c-2.2612915 0 -4.0944824 -1.7767601 -4.0944824 -3.9685059l0 0c0 -2.191742 1.8331909 -3.968502 4.0944824 -3.968502z" fill-rule="evenodd"/></g><path fill="#000000" fill-opacity="0.0" d="m864.39233 -8.842423l117.102356 0l0 65.98425l-117.102356 0z" fill-rule="evenodd"/><path fill="#4a86e8" d="m883.78296 20.378202q-1.0625 0 -1.875 -0.4375q-0.796875 -0.4375 -1.25 -1.328125q-0.453125 -0.890625 -0.453125 -2.25q0 -1.421876 0.46875 -2.328126q0.484375 -0.90625 1.3125 -1.34375q0.84375 -0.4375 1.921875 -0.4375q0.578125 0 1.125 0.125q0.546875 0.109375 0.90625 0.28125l-0.359375 1.0q-0.359375 -0.140625 -0.828125 -0.25q-0.46875 -0.125 -0.875 -0.125q-0.8125 0 -1.359375 0.359375q-0.546875 0.34375 -0.8125 1.03125q-0.265625 0.671875 -0.265625 1.671876q0 0.953125 0.25 1.625q0.265625 0.671875 0.78125 1.03125q0.53125 0.34375 1.3125 0.34375q0.625 0 1.125 -0.125q0.5 -0.140625 0.90625 -0.3125l0 1.0625q-0.390625 0.1875 -0.875 0.296875q-0.484375 0.109375 -1.15625 0.109375zm6.0672607 3.375002q-1.546875 0 -2.390625 -0.578125q-0.828125 -0.5625019 -0.828125 -1.6093769q0 -0.734375 0.46875 -1.265625q0.46875 -0.515625 1.296875 -0.6875q-0.296875 -0.140625 -0.515625 -0.421875q-0.21875 -0.296875 -0.21875 -0.65625q0 -0.4375 0.234375 -0.765625q0.234375 -0.328125 0.734375 -0.625q-0.609375 -0.25 -1.0 -0.84375q-0.375 -0.59375095 -0.375 -1.390626q0 -0.84375 0.34375 -1.4375q0.34375 -0.609375 1.015625 -0.921875q0.671875 -0.3125 1.609375 -0.3125q0.203125 0 0.40625 0.015625q0.21875 0.015625 0.40625 0.046875q0.203125 0.03125 0.34375 0.078125l2.703125 0l0 0.765625l-1.453125 0.1875q0.21875 0.265625 0.359375 0.671875q0.140625 0.390625 0.140625 0.859375q0 1.187501 -0.796875 1.875001q-0.796875 0.6875 -2.171875 0.6875q-0.34375 0 -0.6875 -0.0625q-0.34375 0.203125 -0.53125 0.4375q-0.171875 0.234375 -0.171875 0.546875q0 0.21875 0.140625 0.359375q0.140625 0.140625 0.390625 0.203125q0.265625 0.046875 0.640625 0.046875l1.390625 0q1.28125 0 1.953125 0.546875q0.6875 0.53125 0.6875 1.5625q0 1.296875 -1.0625 1.984375q-1.046875 0.7031269 -3.0625 0.7031269zm0.046875 -0.9218769q0.96875 0 1.609375 -0.203125q0.640625 -0.1875 0.953125 -0.5625q0.328125 -0.375 0.328125 -0.875q0 -0.46875 -0.21875 -0.71875q-0.21875 -0.234375 -0.640625 -0.3125q-0.40625 -0.09375 -1.0 -0.09375l-1.359375 0q-0.53125 0 -0.9375 0.171875q-0.390625 0.171875 -0.609375 0.484375q-0.203125 0.328125 -0.203125 0.796875q0 0.640625 0.53125 0.96875q0.546875 0.34375 1.546875 0.34375zm0.296875 -6.265625q0.859375 0 1.28125 -0.421875q0.4375 -0.43750095 0.4375 -1.265626q0 -0.875 -0.4375 -1.3125q-0.4375 -0.453125 -1.296875 -0.453125q-0.8125 0 -1.25 0.453125q-0.4375 0.453125 -0.4375 1.328125q0 0.8125 0.4375 1.250001q0.453125 0.421875 1.265625 0.421875zm9.145386 -4.312501q1.390625 0 2.109375 0.6875q0.71875 0.671875 0.71875 2.1875l0 5.109376l-1.171875 0l0 -5.031251q0 -0.984375 -0.453125 -1.46875q-0.453125 -0.484375 -1.375 -0.484375q-1.296875 0 -1.828125 0.734375q-0.53125 0.734375 -0.53125 2.140626l0 4.109375l-1.1875 0l0 -7.843751l0.96875 0l0.171875 1.125l0.0625 0q0.25 -0.40625 0.640625 -0.6875q0.390625 -0.28125 0.859375 -0.421875q0.484375 -0.15625 1.015625 -0.15625z" fill-rule="nonzero"/><path fill="#4a86e8" d="m887.1111 37.837578l-0.75 -2.484375l-3.8125 0l-0.765625 2.484375l-2.390625 0l3.6875 -10.5l2.71875 0l3.703125 10.5l-2.390625 0zm-1.28125 -4.34375l-0.765625 -2.4375q-0.0625 -0.25 -0.1875 -0.625q-0.109375 -0.390625 -0.234375 -0.78125q-0.125 -0.40625 -0.1875 -0.6875q-0.078125 0.28125 -0.203125 0.71875q-0.125 0.4375 -0.234375 0.828125q-0.109375 0.375 -0.171875 0.546875l-0.75 2.4375l2.734375 0zm4.9869385 4.34375l0 -10.46875l2.21875 0l0 10.46875l-2.21875 0z" fill-rule="nonzero"/><g filter="url(#shadowFilter-p.17)"><use xlink:href="#p.17" transform="matrix(1.0 0.0 0.0 1.0 0.0 2.0)"/></g><defs><filter id="shadowFilter-p.17" filterUnits="userSpaceOnUse"><feGaussianBlur in="SourceAlpha" stdDeviation="2.0" result="blur"/><feComponentTransfer in="blur" color-interpolation-filters="sRGB"><feFuncR type="linear" slope="0" intercept="0.0"/><feFuncG type="linear" slope="0" intercept="0.0"/><feFuncB type="linear" slope="0" intercept="0.0"/><feFuncA type="linear" slope="0.22" intercept="0"/></feComponentTransfer></filter></defs><g id="p.17"><path fill="#4a86e8" d="m843.2809 27.4195l0 0c1.5655518 0 2.8346558 1.2197609 2.8346558 2.724409l0 0c0 0.722559 -0.29864502 1.4155235 -0.83026123 1.9264488c-0.5315552 0.5109253 -1.2525635 0.7979622 -2.0043945 0.7979622l0 0c-1.5654907 0 -2.8345947 -1.2197609 -2.8345947 -2.724411l0 0c0 -1.5046482 1.269104 -2.724409 2.8345947 -2.724409z" fill-rule="evenodd"/><path stroke="#4a86e8" stroke-width="1.0" stroke-linejoin="round" stroke-linecap="butt" d="m843.2809 27.4195l0 0c1.5655518 0 2.8346558 1.2197609 2.8346558 2.724409l0 0c0 0.722559 -0.29864502 1.4155235 -0.83026123 1.9264488c-0.5315552 0.5109253 -1.2525635 0.7979622 -2.0043945 0.7979622l0 0c-1.5654907 0 -2.8345947 -1.2197609 -2.8345947 -2.724411l0 0c0 -1.5046482 1.269104 -2.724409 2.8345947 -2.724409z" fill-rule="evenodd"/></g><path fill="#000000" fill-opacity="0.0" d="m1037.5657 1.8952544l17.826782 35.55905" fill-rule="evenodd"/><path stroke="#4a86e8" stroke-width="1.0" stroke-linejoin="round" stroke-linecap="butt" d="m1037.5657 1.8952544l17.826782 35.55905" fill-rule="evenodd"/><path fill="#000000" fill-opacity="0.0" d="m1037.5657 1.8952544l-17.826782 35.55905" fill-rule="evenodd"/><path stroke="#4a86e8" stroke-width="1.0" stroke-linejoin="round" stroke-linecap="butt" d="m1037.5657 1.8952544l-17.826782 35.55905" fill-rule="evenodd"/><path fill="#000000" fill-opacity="0.0" d="m1001.943 1.8952544l17.826782 35.55905" fill-rule="evenodd"/><path stroke="#4a86e8" stroke-width="1.0" stroke-linejoin="round" stroke-linecap="butt" stroke-dasharray="4.0,3.0" d="m1001.943 1.8952544l17.826782 35.55905" fill-rule="evenodd"/><g filter="url(#shadowFilter-p.18)"><use xlink:href="#p.18" transform="matrix(1.0 0.0 0.0 1.0 0.0 2.0)"/></g><defs><filter id="shadowFilter-p.18" filterUnits="userSpaceOnUse"><feGaussianBlur in="SourceAlpha" stdDeviation="2.0" result="blur"/><feComponentTransfer in="blur" color-interpolation-filters="sRGB"><feFuncR type="linear" slope="0" intercept="0.0"/><feFuncG type="linear" slope="0" intercept="0.0"/><feFuncB type="linear" slope="0" intercept="0.0"/><feFuncA type="linear" slope="0.13" intercept="0"/></feComponentTransfer></filter></defs><g id="p.18"><path fill="#ffffff" d="m1001.943 -6.041754l0 0c2.2613525 0 4.0944824 1.7767601 4.0944824 3.9685042l0 0c0 1.0525126 -0.43133545 2.061917 -1.1992188 2.8061562c-0.7678833 0.74423885 -1.8093262 1.1623479 -2.8952637 1.1623479l0 0c-2.2612915 0 -4.0944824 -1.7767597 -4.0944824 -3.968504l0 0c0 -2.191744 1.8331909 -3.9685042 4.0944824 -3.9685042z" fill-rule="evenodd"/><path stroke="#4a86e8" stroke-width="1.0" stroke-linejoin="round" stroke-linecap="butt" d="m1001.943 -6.041754l0 0c2.2613525 0 4.0944824 1.7767601 4.0944824 3.9685042l0 0c0 1.0525126 -0.43133545 2.061917 -1.1992188 2.8061562c-0.7678833 0.74423885 -1.8093262 1.1623479 -2.8952637 1.1623479l0 0c-2.2612915 0 -4.0944824 -1.7767597 -4.0944824 -3.968504l0 0c0 -2.191744 1.8331909 -3.9685042 4.0944824 -3.9685042z" fill-rule="evenodd"/></g><g filter="url(#shadowFilter-p.19)"><use xlink:href="#p.19" transform="matrix(1.0 0.0 0.0 1.0 0.0 2.0)"/></g><defs><filter id="shadowFilter-p.19" filterUnits="userSpaceOnUse"><feGaussianBlur in="SourceAlpha" stdDeviation="2.0" result="blur"/><feComponentTransfer in="blur" color-interpolation-filters="sRGB"><feFuncR type="linear" slope="0" intercept="0.0"/><feFuncG type="linear" slope="0" intercept="0.0"/><feFuncB type="linear" slope="0" intercept="0.0"/><feFuncA type="linear" slope="0.13" intercept="0"/></feComponentTransfer></filter></defs><g id="p.19"><path fill="#ffffff" d="m984.1317 37.444927l0 0c2.2612915 0 4.0944824 1.7767601 4.0944824 3.968502l0 0c0 1.0525131 -0.43139648 2.0619202 -1.1992798 2.8061562c-0.76782227 0.7442398 -1.8093262 1.1623497 -2.8952026 1.1623497l0 0c-2.2613525 0 -4.0944824 -1.7767601 -4.0944824 -3.9685059l0 0c0 -2.191742 1.8331299 -3.968502 4.0944824 -3.968502z" fill-rule="evenodd"/><path stroke="#4a86e8" stroke-width="1.0" stroke-linejoin="round" stroke-linecap="butt" d="m984.1317 37.444927l0 0c2.2612915 0 4.0944824 1.7767601 4.0944824 3.968502l0 0c0 1.0525131 -0.43139648 2.0619202 -1.1992798 2.8061562c-0.76782227 0.7442398 -1.8093262 1.1623497 -2.8952026 1.1623497l0 0c-2.2613525 0 -4.0944824 -1.7767601 -4.0944824 -3.9685059l0 0c0 -2.191742 1.8331299 -3.968502 4.0944824 -3.968502z" fill-rule="evenodd"/></g><g filter="url(#shadowFilter-p.20)"><use xlink:href="#p.20" transform="matrix(1.0 0.0 0.0 1.0 0.0 2.0)"/></g><defs><filter id="shadowFilter-p.20" filterUnits="userSpaceOnUse"><feGaussianBlur in="SourceAlpha" stdDeviation="2.0" result="blur"/><feComponentTransfer in="blur" color-interpolation-filters="sRGB"><feFuncR type="linear" slope="0" intercept="0.0"/><feFuncG type="linear" slope="0" intercept="0.0"/><feFuncB type="linear" slope="0" intercept="0.0"/><feFuncA type="linear" slope="0.13" intercept="0"/></feComponentTransfer></filter></defs><g id="p.20"><path fill="#ffffff" d="m1019.75433 37.444927l0 0c2.2612915 0 4.0944824 1.7767601 4.0944824 3.968502l0 0c0 1.0525131 -0.43139648 2.0619202 -1.1992798 2.8061562c-0.76782227 0.7442398 -1.8092651 1.1623497 -2.8952026 1.1623497l0 0c-2.2613525 0 -4.0944824 -1.7767601 -4.0944824 -3.9685059l0 0c0 -2.191742 1.8331299 -3.968502 4.0944824 -3.968502z" fill-rule="evenodd"/><path stroke="#4a86e8" stroke-width="1.0" stroke-linejoin="round" stroke-linecap="butt" d="m1019.75433 37.444927l0 0c2.2612915 0 4.0944824 1.7767601 4.0944824 3.968502l0 0c0 1.0525131 -0.43139648 2.0619202 -1.1992798 2.8061562c-0.76782227 0.7442398 -1.8092651 1.1623497 -2.8952026 1.1623497l0 0c-2.2613525 0 -4.0944824 -1.7767601 -4.0944824 -3.9685059l0 0c0 -2.191742 1.8331299 -3.968502 4.0944824 -3.968502z" fill-rule="evenodd"/></g><g filter="url(#shadowFilter-p.21)"><use xlink:href="#p.21" transform="matrix(1.0 0.0 0.0 1.0 0.0 2.0)"/></g><defs><filter id="shadowFilter-p.21" filterUnits="userSpaceOnUse"><feGaussianBlur in="SourceAlpha" stdDeviation="2.0" result="blur"/><feComponentTransfer in="blur" color-interpolation-filters="sRGB"><feFuncR type="linear" slope="0" intercept="0.0"/><feFuncG type="linear" slope="0" intercept="0.0"/><feFuncB type="linear" slope="0" intercept="0.0"/><feFuncA type="linear" slope="0.13" intercept="0"/></feComponentTransfer></filter></defs><g id="p.21"><path fill="#ffffff" d="m1037.5657 -6.041754l0 0c2.2612305 0 4.0944824 1.7767601 4.0944824 3.9685042l0 0c0 1.0525126 -0.43139648 2.061917 -1.1993408 2.8061562c-0.76782227 0.74423885 -1.8092041 1.1623479 -2.8951416 1.1623479l0 0c-2.2613525 0 -4.0944824 -1.7767597 -4.0944824 -3.968504l0 0c0 -2.191744 1.8331299 -3.9685042 4.0944824 -3.9685042z" fill-rule="evenodd"/><path stroke="#4a86e8" stroke-width="1.0" stroke-linejoin="round" stroke-linecap="butt" d="m1037.5657 -6.041754l0 0c2.2612305 0 4.0944824 1.7767601 4.0944824 3.9685042l0 0c0 1.0525126 -0.43139648 2.061917 -1.1993408 2.8061562c-0.76782227 0.74423885 -1.8092041 1.1623479 -2.8951416 1.1623479l0 0c-2.2613525 0 -4.0944824 -1.7767597 -4.0944824 -3.968504l0 0c0 -2.191744 1.8331299 -3.9685042 4.0944824 -3.9685042z" fill-rule="evenodd"/></g><g filter="url(#shadowFilter-p.22)"><use xlink:href="#p.22" transform="matrix(1.0 0.0 0.0 1.0 0.0 2.0)"/></g><defs><filter id="shadowFilter-p.22" filterUnits="userSpaceOnUse"><feGaussianBlur in="SourceAlpha" stdDeviation="2.0" result="blur"/><feComponentTransfer in="blur" color-interpolation-filters="sRGB"><feFuncR type="linear" slope="0" intercept="0.0"/><feFuncG type="linear" slope="0" intercept="0.0"/><feFuncB type="linear" slope="0" intercept="0.0"/><feFuncA type="linear" slope="0.13" intercept="0"/></feComponentTransfer></filter></defs><g id="p.22"><path fill="#ffffff" d="m1055.377 37.444927l0 0c2.2613525 0 4.0944824 1.7767601 4.0944824 3.968502l0 0c0 1.0525131 -0.43139648 2.0619202 -1.1992188 2.8061562c-0.76794434 0.7442398 -1.8093262 1.1623497 -2.8952637 1.1623497l0 0c-2.2613525 0 -4.0944824 -1.7767601 -4.0944824 -3.9685059l0 0c0 -2.191742 1.8331299 -3.968502 4.0944824 -3.968502z" fill-rule="evenodd"/><path stroke="#4a86e8" stroke-width="1.0" stroke-linejoin="round" stroke-linecap="butt" d="m1055.377 37.444927l0 0c2.2613525 0 4.0944824 1.7767601 4.0944824 3.968502l0 0c0 1.0525131 -0.43139648 2.0619202 -1.1992188 2.8061562c-0.76794434 0.7442398 -1.8093262 1.1623497 -2.8952637 1.1623497l0 0c-2.2613525 0 -4.0944824 -1.7767601 -4.0944824 -3.9685059l0 0c0 -2.191742 1.8331299 -3.968502 4.0944824 -3.968502z" fill-rule="evenodd"/></g><path fill="#000000" fill-opacity="0.0" d="m1058.6783 -8.842423l117.10242 0l0 65.98425l-117.10242 0z" fill-rule="evenodd"/><path fill="#4a86e8" d="m1078.069 20.378202q-1.0625 0 -1.875 -0.4375q-0.796875 -0.4375 -1.25 -1.328125q-0.453125 -0.890625 -0.453125 -2.25q0 -1.421876 0.46875 -2.328126q0.484375 -0.90625 1.3125 -1.34375q0.84375 -0.4375 1.921875 -0.4375q0.578125 0 1.125 0.125q0.546875 0.109375 0.90625 0.28125l-0.359375 1.0q-0.359375 -0.140625 -0.828125 -0.25q-0.46875 -0.125 -0.875 -0.125q-0.8125 0 -1.359375 0.359375q-0.546875 0.34375 -0.8125 1.03125q-0.265625 0.671875 -0.265625 1.671876q0 0.953125 0.25 1.625q0.265625 0.671875 0.78125 1.03125q0.53125 0.34375 1.3125 0.34375q0.625 0 1.125 -0.125q0.5 -0.140625 0.90625 -0.3125l0 1.0625q-0.390625 0.1875 -0.875 0.296875q-0.484375 0.109375 -1.15625 0.109375zm6.0672607 3.375002q-1.546875 0 -2.390625 -0.578125q-0.828125 -0.5625019 -0.828125 -1.6093769q0 -0.734375 0.46875 -1.265625q0.46875 -0.515625 1.296875 -0.6875q-0.296875 -0.140625 -0.515625 -0.421875q-0.21875 -0.296875 -0.21875 -0.65625q0 -0.4375 0.234375 -0.765625q0.234375 -0.328125 0.734375 -0.625q-0.609375 -0.25 -1.0 -0.84375q-0.375 -0.59375095 -0.375 -1.390626q0 -0.84375 0.34375 -1.4375q0.34375 -0.609375 1.015625 -0.921875q0.671875 -0.3125 1.609375 -0.3125q0.203125 0 0.40625 0.015625q0.21875 0.015625 0.40625 0.046875q0.203125 0.03125 0.34375 0.078125l2.703125 0l0 0.765625l-1.453125 0.1875q0.21875 0.265625 0.359375 0.671875q0.140625 0.390625 0.140625 0.859375q0 1.187501 -0.796875 1.875001q-0.796875 0.6875 -2.171875 0.6875q-0.34375 0 -0.6875 -0.0625q-0.34375 0.203125 -0.53125 0.4375q-0.171875 0.234375 -0.171875 0.546875q0 0.21875 0.140625 0.359375q0.140625 0.140625 0.390625 0.203125q0.265625 0.046875 0.640625 0.046875l1.390625 0q1.28125 0 1.953125 0.546875q0.6875 0.53125 0.6875 1.5625q0 1.296875 -1.0625 1.984375q-1.046875 0.7031269 -3.0625 0.7031269zm0.046875 -0.9218769q0.96875 0 1.609375 -0.203125q0.640625 -0.1875 0.953125 -0.5625q0.328125 -0.375 0.328125 -0.875q0 -0.46875 -0.21875 -0.71875q-0.21875 -0.234375 -0.640625 -0.3125q-0.40625 -0.09375 -1.0 -0.09375l-1.359375 0q-0.53125 0 -0.9375 0.171875q-0.390625 0.171875 -0.609375 0.484375q-0.203125 0.328125 -0.203125 0.796875q0 0.640625 0.53125 0.96875q0.546875 0.34375 1.546875 0.34375zm0.296875 -6.265625q0.859375 0 1.28125 -0.421875q0.4375 -0.43750095 0.4375 -1.265626q0 -0.875 -0.4375 -1.3125q-0.4375 -0.453125 -1.296875 -0.453125q-0.8125 0 -1.25 0.453125q-0.4375 0.453125 -0.4375 1.328125q0 0.8125 0.4375 1.250001q0.453125 0.421875 1.265625 0.421875zm9.145386 -4.312501q1.390625 0 2.109375 0.6875q0.71875 0.671875 0.71875 2.1875l0 5.109376l-1.171875 0l0 -5.031251q0 -0.984375 -0.453125 -1.46875q-0.453125 -0.484375 -1.375 -0.484375q-1.296875 0 -1.828125 0.734375q-0.53125 0.734375 -0.53125 2.140626l0 4.109375l-1.1875 0l0 -7.843751l0.96875 0l0.171875 1.125l0.0625 0q0.25 -0.40625 0.640625 -0.6875q0.390625 -0.28125 0.859375 -0.421875q0.484375 -0.15625 1.015625 -0.15625z" fill-rule="nonzero"/><path fill="#4a86e8" d="m1081.3971 37.837578l-0.75 -2.484375l-3.8125 0l-0.765625 2.484375l-2.390625 0l3.6875 -10.5l2.71875 0l3.703125 10.5l-2.390625 0zm-1.28125 -4.34375l-0.765625 -2.4375q-0.0625 -0.25 -0.1875 -0.625q-0.109375 -0.390625 -0.234375 -0.78125q-0.125 -0.40625 -0.1875 -0.6875q-0.078125 0.28125 -0.203125 0.71875q-0.125 0.4375 -0.234375 0.828125q-0.109375 0.375 -0.171875 0.546875l-0.75 2.4375l2.734375 0zm4.9869385 4.34375l0 -10.46875l2.21875 0l0 10.46875l-2.21875 0z" fill-rule="nonzero"/><path fill="#000000" fill-opacity="0.0" d="m819.58765 249.35408l17.826721 35.559067" fill-rule="evenodd"/><path stroke="#4a86e8" stroke-width="1.0" stroke-linejoin="round" stroke-linecap="butt" d="m819.58765 249.35408l17.826721 35.559067" fill-rule="evenodd"/><path fill="#000000" fill-opacity="0.0" d="m819.58765 249.35408l-17.826782 35.559067" fill-rule="evenodd"/><path stroke="#4a86e8" stroke-width="1.0" stroke-linejoin="round" stroke-linecap="butt" d="m819.58765 249.35408l-17.826782 35.559067" fill-rule="evenodd"/><path fill="#000000" fill-opacity="0.0" d="m783.965 249.35408l17.826721 35.559067" fill-rule="evenodd"/><path stroke="#4a86e8" stroke-width="1.0" stroke-linejoin="round" stroke-linecap="butt" d="m783.965 249.35408l17.826721 35.559067" fill-rule="evenodd"/><path fill="#000000" fill-opacity="0.0" d="m783.965 249.35408l-17.826782 35.559067" fill-rule="evenodd"/><path stroke="#4a86e8" stroke-width="1.0" stroke-linejoin="round" stroke-linecap="butt" d="m783.965 249.35408l-17.826782 35.559067" fill-rule="evenodd"/><path fill="#ffffff" d="m783.965 241.41707l0 0c2.2612915 0 4.0944824 1.7767639 4.0944824 3.9685059l0 0c0 1.0525055 -0.43139648 2.0619202 -1.1992798 2.8061523c-0.7678833 0.74424744 -1.8093262 1.1623535 -2.8952026 1.1623535l0 0c-2.2613525 0 -4.0945435 -1.7767639 -4.0945435 -3.9685059l0 0c0 -2.191742 1.8331909 -3.9685059 4.0945435 -3.9685059z" fill-rule="evenodd"/><path stroke="#4a86e8" stroke-width="1.0" stroke-linejoin="round" stroke-linecap="butt" d="m783.965 241.41707l0 0c2.2612915 0 4.0944824 1.7767639 4.0944824 3.9685059l0 0c0 1.0525055 -0.43139648 2.0619202 -1.1992798 2.8061523c-0.7678833 0.74424744 -1.8093262 1.1623535 -2.8952026 1.1623535l0 0c-2.2613525 0 -4.0945435 -1.7767639 -4.0945435 -3.9685059l0 0c0 -2.191742 1.8331909 -3.9685059 4.0945435 -3.9685059z" fill-rule="evenodd"/><path fill="#ffffff" d="m766.1537 284.90375l0 0c2.2612915 0 4.0944824 1.7767639 4.0944824 3.9685059l0 0c0 1.0525208 -0.43139648 2.0619202 -1.1992188 2.8061523c-0.7678833 0.7442322 -1.8093262 1.1623535 -2.8952637 1.1623535l0 0c-2.2613525 0 -4.0944824 -1.7767639 -4.0944824 -3.9685059l0 0c0 -2.191742 1.8331299 -3.9685059 4.0944824 -3.9685059z" fill-rule="evenodd"/><path stroke="#4a86e8" stroke-width="1.0" stroke-linejoin="round" stroke-linecap="butt" d="m766.1537 284.90375l0 0c2.2612915 0 4.0944824 1.7767639 4.0944824 3.9685059l0 0c0 1.0525208 -0.43139648 2.0619202 -1.1992188 2.8061523c-0.7678833 0.7442322 -1.8093262 1.1623535 -2.8952637 1.1623535l0 0c-2.2613525 0 -4.0944824 -1.7767639 -4.0944824 -3.9685059l0 0c0 -2.191742 1.8331299 -3.9685059 4.0944824 -3.9685059z" fill-rule="evenodd"/><path fill="#ffffff" d="m801.7763 284.90375l0 0c2.2613525 0 4.0944824 1.7767639 4.0944824 3.9685059l0 0c0 1.0525208 -0.43139648 2.0619202 -1.1992188 2.8061523c-0.7678833 0.7442322 -1.8093262 1.1623535 -2.8952637 1.1623535l0 0c-2.2612915 0 -4.0944824 -1.7767639 -4.0944824 -3.9685059l0 0c0 -2.191742 1.8331909 -3.9685059 4.0944824 -3.9685059z" fill-rule="evenodd"/><path stroke="#4a86e8" stroke-width="1.0" stroke-linejoin="round" stroke-linecap="butt" d="m801.7763 284.90375l0 0c2.2613525 0 4.0944824 1.7767639 4.0944824 3.9685059l0 0c0 1.0525208 -0.43139648 2.0619202 -1.1992188 2.8061523c-0.7678833 0.7442322 -1.8093262 1.1623535 -2.8952637 1.1623535l0 0c-2.2612915 0 -4.0944824 -1.7767639 -4.0944824 -3.9685059l0 0c0 -2.191742 1.8331909 -3.9685059 4.0944824 -3.9685059z" fill-rule="evenodd"/><path fill="#ffffff" d="m819.58765 241.41707l0 0c2.2612915 0 4.0944824 1.7767639 4.0944824 3.9685059l0 0c0 1.0525055 -0.43139648 2.0619202 -1.1992798 2.8061523c-0.76782227 0.74424744 -1.8093262 1.1623535 -2.8952026 1.1623535l0 0c-2.2613525 0 -4.0944824 -1.7767639 -4.0944824 -3.9685059l0 0c0 -2.191742 1.8331299 -3.9685059 4.0944824 -3.9685059z" fill-rule="evenodd"/><path stroke="#4a86e8" stroke-width="1.0" stroke-linejoin="round" stroke-linecap="butt" d="m819.58765 241.41707l0 0c2.2612915 0 4.0944824 1.7767639 4.0944824 3.9685059l0 0c0 1.0525055 -0.43139648 2.0619202 -1.1992798 2.8061523c-0.76782227 0.74424744 -1.8093262 1.1623535 -2.8952026 1.1623535l0 0c-2.2613525 0 -4.0944824 -1.7767639 -4.0944824 -3.9685059l0 0c0 -2.191742 1.8331299 -3.9685059 4.0944824 -3.9685059z" fill-rule="evenodd"/><path fill="#ffffff" d="m837.3989 284.90375l0 0c2.2613525 0 4.0944824 1.7767639 4.0944824 3.9685059l0 0c0 1.0525208 -0.43133545 2.0619202 -1.1992188 2.8061523c-0.7678833 0.7442322 -1.8093262 1.1623535 -2.8952637 1.1623535l0 0c-2.2612915 0 -4.0944824 -1.7767639 -4.0944824 -3.9685059l0 0c0 -2.191742 1.8331909 -3.9685059 4.0944824 -3.9685059z" fill-rule="evenodd"/><path stroke="#4a86e8" stroke-width="1.0" stroke-linejoin="round" stroke-linecap="butt" d="m837.3989 284.90375l0 0c2.2613525 0 4.0944824 1.7767639 4.0944824 3.9685059l0 0c0 1.0525208 -0.43133545 2.0619202 -1.1992188 2.8061523c-0.7678833 0.7442322 -1.8093262 1.1623535 -2.8952637 1.1623535l0 0c-2.2612915 0 -4.0944824 -1.7767639 -4.0944824 -3.9685059l0 0c0 -2.191742 1.8331909 -3.9685059 4.0944824 -3.9685059z" fill-rule="evenodd"/><path fill="#000000" fill-opacity="0.0" d="m840.7 238.61665l67.968506 0l0 65.98424l-67.968506 0z" fill-rule="evenodd"/><path fill="#4a86e8" d="m860.09064 267.83728q-1.0625 0 -1.875 -0.4375q-0.796875 -0.4375 -1.25 -1.328125q-0.453125 -0.890625 -0.453125 -2.25q0 -1.421875 0.46875 -2.328125q0.484375 -0.90625 1.3125 -1.34375q0.84375 -0.4375 1.921875 -0.4375q0.578125 0 1.125 0.125q0.546875 0.109375 0.90625 0.28125l-0.359375 1.0q-0.359375 -0.140625 -0.828125 -0.25q-0.46875 -0.125 -0.875 -0.125q-0.8125 0 -1.359375 0.359375q-0.546875 0.34375 -0.8125 1.03125q-0.265625 0.671875 -0.265625 1.671875q0 0.953125 0.25 1.625q0.265625 0.671875 0.78125 1.03125q0.53125 0.34375 1.3125 0.34375q0.625 0 1.125 -0.125q0.5 -0.140625 0.90625 -0.3125l0 1.0625q-0.390625 0.1875 -0.875 0.296875q-0.484375 0.109375 -1.15625 0.109375zm6.0672607 3.375q-1.546875 0 -2.390625 -0.578125q-0.828125 -0.5625 -0.828125 -1.609375q0 -0.734375 0.46875 -1.265625q0.46875 -0.515625 1.296875 -0.6875q-0.296875 -0.140625 -0.515625 -0.421875q-0.21875 -0.296875 -0.21875 -0.65625q0 -0.4375 0.234375 -0.765625q0.234375 -0.328125 0.734375 -0.625q-0.609375 -0.25 -1.0 -0.84375q-0.375 -0.59375 -0.375 -1.390625q0 -0.84375 0.34375 -1.4375q0.34375 -0.609375 1.015625 -0.921875q0.671875 -0.3125 1.609375 -0.3125q0.203125 0 0.40625 0.015625q0.21875 0.015625 0.40625 0.046875q0.203125 0.03125 0.34375 0.078125l2.703125 0l0 0.765625l-1.453125 0.1875q0.21875 0.265625 0.359375 0.671875q0.140625 0.390625 0.140625 0.859375q0 1.1875 -0.796875 1.875q-0.796875 0.6875 -2.171875 0.6875q-0.34375 0 -0.6875 -0.0625q-0.34375 0.203125 -0.53125 0.4375q-0.171875 0.234375 -0.171875 0.546875q0 0.21875 0.140625 0.359375q0.140625 0.140625 0.390625 0.203125q0.265625 0.046875 0.640625 0.046875l1.390625 0q1.28125 0 1.953125 0.546875q0.6875 0.53125 0.6875 1.5625q0 1.296875 -1.0625 1.984375q-1.046875 0.703125 -3.0625 0.703125zm0.046875 -0.921875q0.96875 0 1.609375 -0.203125q0.640625 -0.1875 0.953125 -0.5625q0.328125 -0.375 0.328125 -0.875q0 -0.46875 -0.21875 -0.71875q-0.21875 -0.234375 -0.640625 -0.3125q-0.40625 -0.09375 -1.0 -0.09375l-1.359375 0q-0.53125 0 -0.9375 0.171875q-0.390625 0.171875 -0.609375 0.484375q-0.203125 0.328125 -0.203125 0.796875q0 0.640625 0.53125 0.96875q0.546875 0.34375 1.546875 0.34375zm0.296875 -6.265625q0.859375 0 1.28125 -0.421875q0.4375 -0.4375 0.4375 -1.265625q0 -0.875 -0.4375 -1.3125q-0.4375 -0.453125 -1.296875 -0.453125q-0.8125 0 -1.25 0.453125q-0.4375 0.453125 -0.4375 1.328125q0 0.8125 0.4375 1.25q0.453125 0.421875 1.265625 0.421875zm9.145386 -4.3125q1.390625 0 2.109375 0.6875q0.71875 0.671875 0.71875 2.1875l0 5.109375l-1.171875 0l0 -5.03125q0 -0.984375 -0.453125 -1.46875q-0.453125 -0.484375 -1.375 -0.484375q-1.296875 0 -1.828125 0.734375q-0.53125 0.734375 -0.53125 2.140625l0 4.109375l-1.1875 0l0 -7.84375l0.96875 0l0.171875 1.125l0.0625 0q0.25 -0.40625 0.640625 -0.6875q0.390625 -0.28125 0.859375 -0.421875q0.484375 -0.15625 1.015625 -0.15625z" fill-rule="nonzero"/><path fill="#4a86e8" d="m863.41876 285.29666l-0.75 -2.484375l-3.8125 0l-0.765625 2.484375l-2.390625 0l3.6875 -10.5l2.71875 0l3.703125 10.5l-2.390625 0zm-1.28125 -4.34375l-0.765625 -2.4375q-0.0625 -0.25 -0.1875 -0.625q-0.109375 -0.390625 -0.234375 -0.78125q-0.125 -0.40625 -0.1875 -0.6875q-0.078125 0.28125 -0.203125 0.71875q-0.125 0.4375 -0.234375 0.828125q-0.109375 0.375 -0.171875 0.546875l-0.75 2.4375l2.734375 0zm4.9869385 4.34375l0 -10.46875l2.21875 0l0 10.46875l-2.21875 0z" fill-rule="nonzero"/></g></svg>